<mxfile host="app.diagrams.net" agent="Mozilla/5.0 (Windows NT 10.0; Win64; x64) AppleWebKit/537.36 (KHTML, like Gecko) Chrome/131.0.0.0 Safari/537.36" version="24.8.9">
  <diagram name="Page-1" id="ej1hpL4I4NgWzJBvOEPz">
    <mxGraphModel dx="1615" dy="-243" grid="1" gridSize="10" guides="1" tooltips="1" connect="1" arrows="1" fold="1" page="1" pageScale="1" pageWidth="850" pageHeight="1100" math="0" shadow="0">
      <root>
        <mxCell id="0" />
        <mxCell id="1" parent="0" />
        <mxCell id="vTrTwZQF_lzcv5GR676D-666" value="" style="group" vertex="1" connectable="0" parent="1">
          <mxGeometry x="465" y="1860" width="1620" height="1768" as="geometry" />
        </mxCell>
        <mxCell id="vTrTwZQF_lzcv5GR676D-193" value="w2053187_Branch" style="swimlane;fontStyle=0;childLayout=stackLayout;horizontal=1;startSize=30;horizontalStack=0;resizeParent=1;resizeParentMax=0;resizeLast=0;collapsible=1;marginBottom=0;whiteSpace=wrap;html=1;" vertex="1" parent="vTrTwZQF_lzcv5GR676D-666">
          <mxGeometry x="100" y="156.52993630573246" width="190" height="198.91719745222932" as="geometry" />
        </mxCell>
        <mxCell id="vTrTwZQF_lzcv5GR676D-194" value="w2053187_branchId {Pk}" style="text;strokeColor=none;fillColor=none;align=left;verticalAlign=middle;spacingLeft=4;spacingRight=4;overflow=hidden;points=[[0,0.5],[1,0.5]];portConstraint=eastwest;rotatable=0;whiteSpace=wrap;html=1;" vertex="1" parent="vTrTwZQF_lzcv5GR676D-193">
          <mxGeometry y="30" width="190" height="33.783439490445865" as="geometry" />
        </mxCell>
        <mxCell id="vTrTwZQF_lzcv5GR676D-195" value="w2053187_branchName" style="text;strokeColor=none;fillColor=none;align=left;verticalAlign=middle;spacingLeft=4;spacingRight=4;overflow=hidden;points=[[0,0.5],[1,0.5]];portConstraint=eastwest;rotatable=0;whiteSpace=wrap;html=1;" vertex="1" parent="vTrTwZQF_lzcv5GR676D-193">
          <mxGeometry y="63.783439490445865" width="190" height="33.783439490445865" as="geometry" />
        </mxCell>
        <mxCell id="vTrTwZQF_lzcv5GR676D-196" value="w2053187_branchAddress" style="text;strokeColor=none;fillColor=none;align=left;verticalAlign=middle;spacingLeft=4;spacingRight=4;overflow=hidden;points=[[0,0.5],[1,0.5]];portConstraint=eastwest;rotatable=0;whiteSpace=wrap;html=1;" vertex="1" parent="vTrTwZQF_lzcv5GR676D-193">
          <mxGeometry y="97.56687898089173" width="190" height="33.783439490445865" as="geometry" />
        </mxCell>
        <mxCell id="vTrTwZQF_lzcv5GR676D-197" value="w2053187_branchTelNo" style="text;strokeColor=none;fillColor=none;align=left;verticalAlign=middle;spacingLeft=4;spacingRight=4;overflow=hidden;points=[[0,0.5],[1,0.5]];portConstraint=eastwest;rotatable=0;whiteSpace=wrap;html=1;" vertex="1" parent="vTrTwZQF_lzcv5GR676D-193">
          <mxGeometry y="131.3503184713376" width="190" height="33.783439490445865" as="geometry" />
        </mxCell>
        <mxCell id="vTrTwZQF_lzcv5GR676D-198" value="w2053187_distanceToTrain" style="text;strokeColor=none;fillColor=none;align=left;verticalAlign=middle;spacingLeft=4;spacingRight=4;overflow=hidden;points=[[0,0.5],[1,0.5]];portConstraint=eastwest;rotatable=0;whiteSpace=wrap;html=1;" vertex="1" parent="vTrTwZQF_lzcv5GR676D-193">
          <mxGeometry y="165.13375796178346" width="190" height="33.783439490445865" as="geometry" />
        </mxCell>
        <mxCell id="vTrTwZQF_lzcv5GR676D-200" value="w2053187_EmployeeRecord" style="swimlane;fontStyle=0;childLayout=stackLayout;horizontal=1;startSize=30;horizontalStack=0;resizeParent=1;resizeParentMax=0;resizeLast=0;collapsible=1;marginBottom=0;whiteSpace=wrap;html=1;" vertex="1" parent="vTrTwZQF_lzcv5GR676D-666">
          <mxGeometry x="85" y="461.70700636942684" width="220" height="131.3503184713376" as="geometry" />
        </mxCell>
        <mxCell id="vTrTwZQF_lzcv5GR676D-201" value="w2053187_branchId {Fk}" style="text;strokeColor=none;fillColor=none;align=left;verticalAlign=middle;spacingLeft=4;spacingRight=4;overflow=hidden;points=[[0,0.5],[1,0.5]];portConstraint=eastwest;rotatable=0;whiteSpace=wrap;html=1;" vertex="1" parent="vTrTwZQF_lzcv5GR676D-200">
          <mxGeometry y="30" width="220" height="33.783439490445865" as="geometry" />
        </mxCell>
        <mxCell id="vTrTwZQF_lzcv5GR676D-202" value="w2053187_staffId {Fk}" style="text;strokeColor=none;fillColor=none;align=left;verticalAlign=middle;spacingLeft=4;spacingRight=4;overflow=hidden;points=[[0,0.5],[1,0.5]];portConstraint=eastwest;rotatable=0;whiteSpace=wrap;html=1;" vertex="1" parent="vTrTwZQF_lzcv5GR676D-200">
          <mxGeometry y="63.783439490445865" width="220" height="33.783439490445865" as="geometry" />
        </mxCell>
        <mxCell id="vTrTwZQF_lzcv5GR676D-203" value="w2053187_employeeRecordId {Pk}" style="text;strokeColor=none;fillColor=none;align=left;verticalAlign=middle;spacingLeft=4;spacingRight=4;overflow=hidden;points=[[0,0.5],[1,0.5]];portConstraint=eastwest;rotatable=0;whiteSpace=wrap;html=1;" vertex="1" parent="vTrTwZQF_lzcv5GR676D-200">
          <mxGeometry y="97.56687898089173" width="220" height="33.783439490445865" as="geometry" />
        </mxCell>
        <mxCell id="vTrTwZQF_lzcv5GR676D-204" value="w2053187_Staff" style="swimlane;fontStyle=0;childLayout=stackLayout;horizontal=1;startSize=30;horizontalStack=0;resizeParent=1;resizeParentMax=0;resizeLast=0;collapsible=1;marginBottom=0;whiteSpace=wrap;html=1;" vertex="1" parent="vTrTwZQF_lzcv5GR676D-666">
          <mxGeometry x="100" y="754.496815286624" width="190" height="165.13375796178346" as="geometry" />
        </mxCell>
        <mxCell id="vTrTwZQF_lzcv5GR676D-205" value="w2053187_staffId {Pk}" style="text;strokeColor=none;fillColor=none;align=left;verticalAlign=middle;spacingLeft=4;spacingRight=4;overflow=hidden;points=[[0,0.5],[1,0.5]];portConstraint=eastwest;rotatable=0;whiteSpace=wrap;html=1;" vertex="1" parent="vTrTwZQF_lzcv5GR676D-204">
          <mxGeometry y="30" width="190" height="33.783439490445865" as="geometry" />
        </mxCell>
        <mxCell id="vTrTwZQF_lzcv5GR676D-206" value="w2053187_staffFullName" style="text;strokeColor=none;fillColor=none;align=left;verticalAlign=middle;spacingLeft=4;spacingRight=4;overflow=hidden;points=[[0,0.5],[1,0.5]];portConstraint=eastwest;rotatable=0;whiteSpace=wrap;html=1;" vertex="1" parent="vTrTwZQF_lzcv5GR676D-204">
          <mxGeometry y="63.783439490445865" width="190" height="33.783439490445865" as="geometry" />
        </mxCell>
        <mxCell id="vTrTwZQF_lzcv5GR676D-207" value="w2053187_staffEmail" style="text;strokeColor=none;fillColor=none;align=left;verticalAlign=middle;spacingLeft=4;spacingRight=4;overflow=hidden;points=[[0,0.5],[1,0.5]];portConstraint=eastwest;rotatable=0;whiteSpace=wrap;html=1;" vertex="1" parent="vTrTwZQF_lzcv5GR676D-204">
          <mxGeometry y="97.56687898089173" width="190" height="33.783439490445865" as="geometry" />
        </mxCell>
        <mxCell id="vTrTwZQF_lzcv5GR676D-208" value="w2053187_staffExtNumber" style="text;strokeColor=none;fillColor=none;align=left;verticalAlign=middle;spacingLeft=4;spacingRight=4;overflow=hidden;points=[[0,0.5],[1,0.5]];portConstraint=eastwest;rotatable=0;whiteSpace=wrap;html=1;" vertex="1" parent="vTrTwZQF_lzcv5GR676D-204">
          <mxGeometry y="131.3503184713376" width="190" height="33.783439490445865" as="geometry" />
        </mxCell>
        <mxCell id="vTrTwZQF_lzcv5GR676D-209" value="w2053187_Staff_Type" style="swimlane;fontStyle=0;childLayout=stackLayout;horizontal=1;startSize=30;horizontalStack=0;resizeParent=1;resizeParentMax=0;resizeLast=0;collapsible=1;marginBottom=0;whiteSpace=wrap;html=1;" vertex="1" parent="vTrTwZQF_lzcv5GR676D-666">
          <mxGeometry x="100" y="1103.5923566878982" width="190" height="198.91719745222932" as="geometry" />
        </mxCell>
        <mxCell id="vTrTwZQF_lzcv5GR676D-210" value="w2053187_staffId {Pk} {Fk}" style="text;strokeColor=none;fillColor=none;align=left;verticalAlign=middle;spacingLeft=4;spacingRight=4;overflow=hidden;points=[[0,0.5],[1,0.5]];portConstraint=eastwest;rotatable=0;whiteSpace=wrap;html=1;" vertex="1" parent="vTrTwZQF_lzcv5GR676D-209">
          <mxGeometry y="30" width="190" height="33.783439490445865" as="geometry" />
        </mxCell>
        <mxCell id="vTrTwZQF_lzcv5GR676D-211" value="w2053187_opticianFlag" style="text;strokeColor=none;fillColor=none;align=left;verticalAlign=middle;spacingLeft=4;spacingRight=4;overflow=hidden;points=[[0,0.5],[1,0.5]];portConstraint=eastwest;rotatable=0;whiteSpace=wrap;html=1;" vertex="1" parent="vTrTwZQF_lzcv5GR676D-209">
          <mxGeometry y="63.783439490445865" width="190" height="33.783439490445865" as="geometry" />
        </mxCell>
        <mxCell id="vTrTwZQF_lzcv5GR676D-212" value="w2053187_audiologistFlag" style="text;strokeColor=none;fillColor=none;align=left;verticalAlign=middle;spacingLeft=4;spacingRight=4;overflow=hidden;points=[[0,0.5],[1,0.5]];portConstraint=eastwest;rotatable=0;whiteSpace=wrap;html=1;" vertex="1" parent="vTrTwZQF_lzcv5GR676D-209">
          <mxGeometry y="97.56687898089173" width="190" height="33.783439490445865" as="geometry" />
        </mxCell>
        <mxCell id="vTrTwZQF_lzcv5GR676D-213" value="w2053187_salesAssistantFlag" style="text;strokeColor=none;fillColor=none;align=left;verticalAlign=middle;spacingLeft=4;spacingRight=4;overflow=hidden;points=[[0,0.5],[1,0.5]];portConstraint=eastwest;rotatable=0;whiteSpace=wrap;html=1;" vertex="1" parent="vTrTwZQF_lzcv5GR676D-209">
          <mxGeometry y="131.3503184713376" width="190" height="33.783439490445865" as="geometry" />
        </mxCell>
        <mxCell id="vTrTwZQF_lzcv5GR676D-214" value="w2053187_commission" style="text;strokeColor=none;fillColor=none;align=left;verticalAlign=middle;spacingLeft=4;spacingRight=4;overflow=hidden;points=[[0,0.5],[1,0.5]];portConstraint=eastwest;rotatable=0;whiteSpace=wrap;html=1;" vertex="1" parent="vTrTwZQF_lzcv5GR676D-209">
          <mxGeometry y="165.13375796178346" width="190" height="33.783439490445865" as="geometry" />
        </mxCell>
        <mxCell id="vTrTwZQF_lzcv5GR676D-228" value="w2053187_Device" style="swimlane;fontStyle=0;childLayout=stackLayout;horizontal=1;startSize=30;horizontalStack=0;resizeParent=1;resizeParentMax=0;resizeLast=0;collapsible=1;marginBottom=0;whiteSpace=wrap;html=1;" vertex="1" parent="vTrTwZQF_lzcv5GR676D-666">
          <mxGeometry x="570" y="769.7579617834394" width="190" height="165.13375796178346" as="geometry" />
        </mxCell>
        <mxCell id="vTrTwZQF_lzcv5GR676D-229" value="w2053187_deviceCatalogId {Pk}" style="text;strokeColor=none;fillColor=none;align=left;verticalAlign=middle;spacingLeft=4;spacingRight=4;overflow=hidden;points=[[0,0.5],[1,0.5]];portConstraint=eastwest;rotatable=0;whiteSpace=wrap;html=1;" vertex="1" parent="vTrTwZQF_lzcv5GR676D-228">
          <mxGeometry y="30" width="190" height="33.783439490445865" as="geometry" />
        </mxCell>
        <mxCell id="vTrTwZQF_lzcv5GR676D-230" value="w2053187_deviceCatalogName" style="text;strokeColor=none;fillColor=none;align=left;verticalAlign=middle;spacingLeft=4;spacingRight=4;overflow=hidden;points=[[0,0.5],[1,0.5]];portConstraint=eastwest;rotatable=0;whiteSpace=wrap;html=1;" vertex="1" parent="vTrTwZQF_lzcv5GR676D-228">
          <mxGeometry y="63.783439490445865" width="190" height="33.783439490445865" as="geometry" />
        </mxCell>
        <mxCell id="vTrTwZQF_lzcv5GR676D-231" value="w2053187_deviceDescription" style="text;strokeColor=none;fillColor=none;align=left;verticalAlign=middle;spacingLeft=4;spacingRight=4;overflow=hidden;points=[[0,0.5],[1,0.5]];portConstraint=eastwest;rotatable=0;whiteSpace=wrap;html=1;" vertex="1" parent="vTrTwZQF_lzcv5GR676D-228">
          <mxGeometry y="97.56687898089173" width="190" height="33.783439490445865" as="geometry" />
        </mxCell>
        <mxCell id="vTrTwZQF_lzcv5GR676D-232" value="w2053187_availabilityStatus" style="text;strokeColor=none;fillColor=none;align=left;verticalAlign=middle;spacingLeft=4;spacingRight=4;overflow=hidden;points=[[0,0.5],[1,0.5]];portConstraint=eastwest;rotatable=0;whiteSpace=wrap;html=1;" vertex="1" parent="vTrTwZQF_lzcv5GR676D-228">
          <mxGeometry y="131.3503184713376" width="190" height="33.783439490445865" as="geometry" />
        </mxCell>
        <mxCell id="vTrTwZQF_lzcv5GR676D-233" value="w2053187_Visual_Device" style="swimlane;fontStyle=0;childLayout=stackLayout;horizontal=1;startSize=30;horizontalStack=0;resizeParent=1;resizeParentMax=0;resizeLast=0;collapsible=1;marginBottom=0;whiteSpace=wrap;html=1;" vertex="1" parent="vTrTwZQF_lzcv5GR676D-666">
          <mxGeometry x="430" y="1082.1961783439492" width="190" height="334.0509554140128" as="geometry" />
        </mxCell>
        <mxCell id="vTrTwZQF_lzcv5GR676D-234" value="w2053187_deviceCatalogId {Pk}" style="text;strokeColor=none;fillColor=none;align=left;verticalAlign=middle;spacingLeft=4;spacingRight=4;overflow=hidden;points=[[0,0.5],[1,0.5]];portConstraint=eastwest;rotatable=0;whiteSpace=wrap;html=1;" vertex="1" parent="vTrTwZQF_lzcv5GR676D-233">
          <mxGeometry y="30" width="190" height="33.783439490445865" as="geometry" />
        </mxCell>
        <mxCell id="vTrTwZQF_lzcv5GR676D-235" value="w2053187_frameFlag" style="text;strokeColor=none;fillColor=none;align=left;verticalAlign=middle;spacingLeft=4;spacingRight=4;overflow=hidden;points=[[0,0.5],[1,0.5]];portConstraint=eastwest;rotatable=0;whiteSpace=wrap;html=1;" vertex="1" parent="vTrTwZQF_lzcv5GR676D-233">
          <mxGeometry y="63.783439490445865" width="190" height="33.783439490445865" as="geometry" />
        </mxCell>
        <mxCell id="vTrTwZQF_lzcv5GR676D-236" value="w2053187_frBrand" style="text;strokeColor=none;fillColor=none;align=left;verticalAlign=middle;spacingLeft=4;spacingRight=4;overflow=hidden;points=[[0,0.5],[1,0.5]];portConstraint=eastwest;rotatable=0;whiteSpace=wrap;html=1;" vertex="1" parent="vTrTwZQF_lzcv5GR676D-233">
          <mxGeometry y="97.56687898089173" width="190" height="33.783439490445865" as="geometry" />
        </mxCell>
        <mxCell id="vTrTwZQF_lzcv5GR676D-237" value="w2053187_frModel" style="text;strokeColor=none;fillColor=none;align=left;verticalAlign=middle;spacingLeft=4;spacingRight=4;overflow=hidden;points=[[0,0.5],[1,0.5]];portConstraint=eastwest;rotatable=0;whiteSpace=wrap;html=1;" vertex="1" parent="vTrTwZQF_lzcv5GR676D-233">
          <mxGeometry y="131.3503184713376" width="190" height="33.783439490445865" as="geometry" />
        </mxCell>
        <mxCell id="vTrTwZQF_lzcv5GR676D-239" value="w2053187_lensFlag" style="text;strokeColor=none;fillColor=none;align=left;verticalAlign=middle;spacingLeft=4;spacingRight=4;overflow=hidden;points=[[0,0.5],[1,0.5]];portConstraint=eastwest;rotatable=0;whiteSpace=wrap;html=1;" vertex="1" parent="vTrTwZQF_lzcv5GR676D-233">
          <mxGeometry y="165.13375796178346" width="190" height="33.783439490445865" as="geometry" />
        </mxCell>
        <mxCell id="vTrTwZQF_lzcv5GR676D-240" value="w2053187_lensSerialNb {Ak}" style="text;strokeColor=none;fillColor=none;align=left;verticalAlign=middle;spacingLeft=4;spacingRight=4;overflow=hidden;points=[[0,0.5],[1,0.5]];portConstraint=eastwest;rotatable=0;whiteSpace=wrap;html=1;" vertex="1" parent="vTrTwZQF_lzcv5GR676D-233">
          <mxGeometry y="198.91719745222932" width="190" height="33.783439490445865" as="geometry" />
        </mxCell>
        <mxCell id="vTrTwZQF_lzcv5GR676D-241" value="w2053187_lensVisionType" style="text;strokeColor=none;fillColor=none;align=left;verticalAlign=middle;spacingLeft=4;spacingRight=4;overflow=hidden;points=[[0,0.5],[1,0.5]];portConstraint=eastwest;rotatable=0;whiteSpace=wrap;html=1;" vertex="1" parent="vTrTwZQF_lzcv5GR676D-233">
          <mxGeometry y="232.70063694267517" width="190" height="33.783439490445865" as="geometry" />
        </mxCell>
        <mxCell id="vTrTwZQF_lzcv5GR676D-242" value="w2053187_lensTint" style="text;strokeColor=none;fillColor=none;align=left;verticalAlign=middle;spacingLeft=4;spacingRight=4;overflow=hidden;points=[[0,0.5],[1,0.5]];portConstraint=eastwest;rotatable=0;whiteSpace=wrap;html=1;" vertex="1" parent="vTrTwZQF_lzcv5GR676D-233">
          <mxGeometry y="266.48407643312106" width="190" height="33.783439490445865" as="geometry" />
        </mxCell>
        <mxCell id="vTrTwZQF_lzcv5GR676D-243" value="w2053187_lensThinnessLevel" style="text;strokeColor=none;fillColor=none;align=left;verticalAlign=middle;spacingLeft=4;spacingRight=4;overflow=hidden;points=[[0,0.5],[1,0.5]];portConstraint=eastwest;rotatable=0;whiteSpace=wrap;html=1;" vertex="1" parent="vTrTwZQF_lzcv5GR676D-233">
          <mxGeometry y="300.2675159235669" width="190" height="33.783439490445865" as="geometry" />
        </mxCell>
        <mxCell id="vTrTwZQF_lzcv5GR676D-244" value="w2053187_Hearing_Device" style="swimlane;fontStyle=0;childLayout=stackLayout;horizontal=1;startSize=30;horizontalStack=0;resizeParent=1;resizeParentMax=0;resizeLast=0;collapsible=1;marginBottom=0;whiteSpace=wrap;html=1;" vertex="1" parent="vTrTwZQF_lzcv5GR676D-666">
          <mxGeometry x="710" y="1082.1961783439492" width="190" height="131.3503184713376" as="geometry" />
        </mxCell>
        <mxCell id="vTrTwZQF_lzcv5GR676D-245" value="w2053187_deviceCatalogId {Pk}" style="text;strokeColor=none;fillColor=none;align=left;verticalAlign=middle;spacingLeft=4;spacingRight=4;overflow=hidden;points=[[0,0.5],[1,0.5]];portConstraint=eastwest;rotatable=0;whiteSpace=wrap;html=1;" vertex="1" parent="vTrTwZQF_lzcv5GR676D-244">
          <mxGeometry y="30" width="190" height="33.783439490445865" as="geometry" />
        </mxCell>
        <mxCell id="vTrTwZQF_lzcv5GR676D-246" value="w2053187_hdMake" style="text;strokeColor=none;fillColor=none;align=left;verticalAlign=middle;spacingLeft=4;spacingRight=4;overflow=hidden;points=[[0,0.5],[1,0.5]];portConstraint=eastwest;rotatable=0;whiteSpace=wrap;html=1;" vertex="1" parent="vTrTwZQF_lzcv5GR676D-244">
          <mxGeometry y="63.783439490445865" width="190" height="33.783439490445865" as="geometry" />
        </mxCell>
        <mxCell id="vTrTwZQF_lzcv5GR676D-247" value="w2053187_hdModel" style="text;strokeColor=none;fillColor=none;align=left;verticalAlign=middle;spacingLeft=4;spacingRight=4;overflow=hidden;points=[[0,0.5],[1,0.5]];portConstraint=eastwest;rotatable=0;whiteSpace=wrap;html=1;" vertex="1" parent="vTrTwZQF_lzcv5GR676D-244">
          <mxGeometry y="97.56687898089173" width="190" height="33.783439490445865" as="geometry" />
        </mxCell>
        <mxCell id="vTrTwZQF_lzcv5GR676D-248" value="w2053187_Prescription" style="swimlane;fontStyle=0;childLayout=stackLayout;horizontal=1;startSize=30;horizontalStack=0;resizeParent=1;resizeParentMax=0;resizeLast=0;collapsible=1;marginBottom=0;whiteSpace=wrap;html=1;" vertex="1" parent="vTrTwZQF_lzcv5GR676D-666">
          <mxGeometry x="970" y="431.9235668789811" width="190" height="232.70063694267517" as="geometry">
            <mxRectangle x="1010" y="705" width="170" height="30" as="alternateBounds" />
          </mxGeometry>
        </mxCell>
        <mxCell id="vTrTwZQF_lzcv5GR676D-249" value="w2053187_prescripRefNo {Pk}" style="text;strokeColor=none;fillColor=none;align=left;verticalAlign=middle;spacingLeft=4;spacingRight=4;overflow=hidden;points=[[0,0.5],[1,0.5]];portConstraint=eastwest;rotatable=0;whiteSpace=wrap;html=1;" vertex="1" parent="vTrTwZQF_lzcv5GR676D-248">
          <mxGeometry y="30" width="190" height="33.783439490445865" as="geometry" />
        </mxCell>
        <mxCell id="vTrTwZQF_lzcv5GR676D-250" value="w2053187_startDate" style="text;strokeColor=none;fillColor=none;align=left;verticalAlign=middle;spacingLeft=4;spacingRight=4;overflow=hidden;points=[[0,0.5],[1,0.5]];portConstraint=eastwest;rotatable=0;whiteSpace=wrap;html=1;" vertex="1" parent="vTrTwZQF_lzcv5GR676D-248">
          <mxGeometry y="63.783439490445865" width="190" height="33.783439490445865" as="geometry" />
        </mxCell>
        <mxCell id="vTrTwZQF_lzcv5GR676D-251" value="w2053187_validToDate" style="text;strokeColor=none;fillColor=none;align=left;verticalAlign=middle;spacingLeft=4;spacingRight=4;overflow=hidden;points=[[0,0.5],[1,0.5]];portConstraint=eastwest;rotatable=0;whiteSpace=wrap;html=1;" vertex="1" parent="vTrTwZQF_lzcv5GR676D-248">
          <mxGeometry y="97.56687898089173" width="190" height="33.783439490445865" as="geometry" />
        </mxCell>
        <mxCell id="vTrTwZQF_lzcv5GR676D-252" value="w2053187_testResults" style="text;strokeColor=none;fillColor=none;align=left;verticalAlign=middle;spacingLeft=4;spacingRight=4;overflow=hidden;points=[[0,0.5],[1,0.5]];portConstraint=eastwest;rotatable=0;whiteSpace=wrap;html=1;" vertex="1" parent="vTrTwZQF_lzcv5GR676D-248">
          <mxGeometry y="131.3503184713376" width="190" height="33.783439490445865" as="geometry" />
        </mxCell>
        <mxCell id="vTrTwZQF_lzcv5GR676D-253" value="w2053187_recommendation" style="text;strokeColor=none;fillColor=none;align=left;verticalAlign=middle;spacingLeft=4;spacingRight=4;overflow=hidden;points=[[0,0.5],[1,0.5]];portConstraint=eastwest;rotatable=0;whiteSpace=wrap;html=1;" vertex="1" parent="vTrTwZQF_lzcv5GR676D-248">
          <mxGeometry y="165.13375796178346" width="190" height="33.783439490445865" as="geometry" />
        </mxCell>
        <mxCell id="vTrTwZQF_lzcv5GR676D-254" value="w2053187_testId {Fk}" style="text;strokeColor=none;fillColor=none;align=left;verticalAlign=middle;spacingLeft=4;spacingRight=4;overflow=hidden;points=[[0,0.5],[1,0.5]];portConstraint=eastwest;rotatable=0;whiteSpace=wrap;html=1;" vertex="1" parent="vTrTwZQF_lzcv5GR676D-248">
          <mxGeometry y="198.91719745222932" width="190" height="33.783439490445865" as="geometry" />
        </mxCell>
        <mxCell id="vTrTwZQF_lzcv5GR676D-255" value="w2053187_Device_Order_Prescription_Record" style="swimlane;fontStyle=0;childLayout=stackLayout;horizontal=1;startSize=30;horizontalStack=0;resizeParent=1;resizeParentMax=0;resizeLast=0;collapsible=1;marginBottom=0;whiteSpace=wrap;html=1;" vertex="1" parent="vTrTwZQF_lzcv5GR676D-666">
          <mxGeometry x="930" y="765.7579617834394" width="270" height="165.13375796178346" as="geometry">
            <mxRectangle x="1010" y="705" width="170" height="30" as="alternateBounds" />
          </mxGeometry>
        </mxCell>
        <mxCell id="vTrTwZQF_lzcv5GR676D-256" value="w2053187_prescripRefNo {Fk}" style="text;strokeColor=none;fillColor=none;align=left;verticalAlign=middle;spacingLeft=4;spacingRight=4;overflow=hidden;points=[[0,0.5],[1,0.5]];portConstraint=eastwest;rotatable=0;whiteSpace=wrap;html=1;" vertex="1" parent="vTrTwZQF_lzcv5GR676D-255">
          <mxGeometry y="30" width="270" height="33.783439490445865" as="geometry" />
        </mxCell>
        <mxCell id="vTrTwZQF_lzcv5GR676D-257" value="w2053187_deviceCatalogId {Fk}" style="text;strokeColor=none;fillColor=none;align=left;verticalAlign=middle;spacingLeft=4;spacingRight=4;overflow=hidden;points=[[0,0.5],[1,0.5]];portConstraint=eastwest;rotatable=0;whiteSpace=wrap;html=1;" vertex="1" parent="vTrTwZQF_lzcv5GR676D-255">
          <mxGeometry y="63.783439490445865" width="270" height="33.783439490445865" as="geometry" />
        </mxCell>
        <mxCell id="vTrTwZQF_lzcv5GR676D-258" value="w2053187_orderRefNo {Fk}" style="text;strokeColor=none;fillColor=none;align=left;verticalAlign=middle;spacingLeft=4;spacingRight=4;overflow=hidden;points=[[0,0.5],[1,0.5]];portConstraint=eastwest;rotatable=0;whiteSpace=wrap;html=1;" vertex="1" parent="vTrTwZQF_lzcv5GR676D-255">
          <mxGeometry y="97.56687898089173" width="270" height="33.783439490445865" as="geometry" />
        </mxCell>
        <mxCell id="vTrTwZQF_lzcv5GR676D-259" value="w2053187_givenDate {Pk}" style="text;strokeColor=none;fillColor=none;align=left;verticalAlign=middle;spacingLeft=4;spacingRight=4;overflow=hidden;points=[[0,0.5],[1,0.5]];portConstraint=eastwest;rotatable=0;whiteSpace=wrap;html=1;" vertex="1" parent="vTrTwZQF_lzcv5GR676D-255">
          <mxGeometry y="131.3503184713376" width="270" height="33.783439490445865" as="geometry" />
        </mxCell>
        <mxCell id="vTrTwZQF_lzcv5GR676D-260" value="w2053187_Order" style="swimlane;fontStyle=0;childLayout=stackLayout;horizontal=1;startSize=30;horizontalStack=0;resizeParent=1;resizeParentMax=0;resizeLast=0;collapsible=1;marginBottom=0;whiteSpace=wrap;html=1;" vertex="1" parent="vTrTwZQF_lzcv5GR676D-666">
          <mxGeometry x="1310" y="720.7133757961783" width="270" height="266.48407643312106" as="geometry">
            <mxRectangle x="1010" y="705" width="170" height="30" as="alternateBounds" />
          </mxGeometry>
        </mxCell>
        <mxCell id="vTrTwZQF_lzcv5GR676D-261" value="w2053187_orderRefNo {Pk}" style="text;strokeColor=none;fillColor=none;align=left;verticalAlign=middle;spacingLeft=4;spacingRight=4;overflow=hidden;points=[[0,0.5],[1,0.5]];portConstraint=eastwest;rotatable=0;whiteSpace=wrap;html=1;" vertex="1" parent="vTrTwZQF_lzcv5GR676D-260">
          <mxGeometry y="30" width="270" height="33.783439490445865" as="geometry" />
        </mxCell>
        <mxCell id="vTrTwZQF_lzcv5GR676D-262" value="w2053187_orderDateTime" style="text;strokeColor=none;fillColor=none;align=left;verticalAlign=middle;spacingLeft=4;spacingRight=4;overflow=hidden;points=[[0,0.5],[1,0.5]];portConstraint=eastwest;rotatable=0;whiteSpace=wrap;html=1;" vertex="1" parent="vTrTwZQF_lzcv5GR676D-260">
          <mxGeometry y="63.783439490445865" width="270" height="33.783439490445865" as="geometry" />
        </mxCell>
        <mxCell id="vTrTwZQF_lzcv5GR676D-263" value="w2053187_orderStatus" style="text;strokeColor=none;fillColor=none;align=left;verticalAlign=middle;spacingLeft=4;spacingRight=4;overflow=hidden;points=[[0,0.5],[1,0.5]];portConstraint=eastwest;rotatable=0;whiteSpace=wrap;html=1;" vertex="1" parent="vTrTwZQF_lzcv5GR676D-260">
          <mxGeometry y="97.56687898089173" width="270" height="33.783439490445865" as="geometry" />
        </mxCell>
        <mxCell id="vTrTwZQF_lzcv5GR676D-265" value="w2053187_expectedDateTime" style="text;strokeColor=none;fillColor=none;align=left;verticalAlign=middle;spacingLeft=4;spacingRight=4;overflow=hidden;points=[[0,0.5],[1,0.5]];portConstraint=eastwest;rotatable=0;whiteSpace=wrap;html=1;" vertex="1" parent="vTrTwZQF_lzcv5GR676D-260">
          <mxGeometry y="131.3503184713376" width="270" height="33.783439490445865" as="geometry" />
        </mxCell>
        <mxCell id="vTrTwZQF_lzcv5GR676D-266" value="w2053187_collecDateTime" style="text;strokeColor=none;fillColor=none;align=left;verticalAlign=middle;spacingLeft=4;spacingRight=4;overflow=hidden;points=[[0,0.5],[1,0.5]];portConstraint=eastwest;rotatable=0;whiteSpace=wrap;html=1;" vertex="1" parent="vTrTwZQF_lzcv5GR676D-260">
          <mxGeometry y="165.13375796178346" width="270" height="33.783439490445865" as="geometry" />
        </mxCell>
        <mxCell id="vTrTwZQF_lzcv5GR676D-267" value="w2053187_custId {Fk}" style="text;strokeColor=none;fillColor=none;align=left;verticalAlign=middle;spacingLeft=4;spacingRight=4;overflow=hidden;points=[[0,0.5],[1,0.5]];portConstraint=eastwest;rotatable=0;whiteSpace=wrap;html=1;" vertex="1" parent="vTrTwZQF_lzcv5GR676D-260">
          <mxGeometry y="198.91719745222932" width="270" height="33.783439490445865" as="geometry" />
        </mxCell>
        <mxCell id="vTrTwZQF_lzcv5GR676D-268" value="w2053187_staffId {Fk}" style="text;strokeColor=none;fillColor=none;align=left;verticalAlign=middle;spacingLeft=4;spacingRight=4;overflow=hidden;points=[[0,0.5],[1,0.5]];portConstraint=eastwest;rotatable=0;whiteSpace=wrap;html=1;" vertex="1" parent="vTrTwZQF_lzcv5GR676D-260">
          <mxGeometry y="232.70063694267517" width="270" height="33.783439490445865" as="geometry" />
        </mxCell>
        <mxCell id="vTrTwZQF_lzcv5GR676D-269" value="w2053187_Customer" style="swimlane;fontStyle=0;childLayout=stackLayout;horizontal=1;startSize=30;horizontalStack=0;resizeParent=1;resizeParentMax=0;resizeLast=0;collapsible=1;marginBottom=0;whiteSpace=wrap;html=1;" vertex="1" parent="vTrTwZQF_lzcv5GR676D-666">
          <mxGeometry x="1014" y="123.87261146496803" width="190" height="232.70063694267517" as="geometry">
            <mxRectangle x="1010" y="705" width="170" height="30" as="alternateBounds" />
          </mxGeometry>
        </mxCell>
        <mxCell id="vTrTwZQF_lzcv5GR676D-270" value="w2053187_custId {Pk}" style="text;strokeColor=none;fillColor=none;align=left;verticalAlign=middle;spacingLeft=4;spacingRight=4;overflow=hidden;points=[[0,0.5],[1,0.5]];portConstraint=eastwest;rotatable=0;whiteSpace=wrap;html=1;" vertex="1" parent="vTrTwZQF_lzcv5GR676D-269">
          <mxGeometry y="30" width="190" height="33.783439490445865" as="geometry" />
        </mxCell>
        <mxCell id="vTrTwZQF_lzcv5GR676D-271" value="w2053187_custFullName" style="text;strokeColor=none;fillColor=none;align=left;verticalAlign=middle;spacingLeft=4;spacingRight=4;overflow=hidden;points=[[0,0.5],[1,0.5]];portConstraint=eastwest;rotatable=0;whiteSpace=wrap;html=1;" vertex="1" parent="vTrTwZQF_lzcv5GR676D-269">
          <mxGeometry y="63.783439490445865" width="190" height="33.783439490445865" as="geometry" />
        </mxCell>
        <mxCell id="vTrTwZQF_lzcv5GR676D-272" value="w2053187_custEmail" style="text;strokeColor=none;fillColor=none;align=left;verticalAlign=middle;spacingLeft=4;spacingRight=4;overflow=hidden;points=[[0,0.5],[1,0.5]];portConstraint=eastwest;rotatable=0;whiteSpace=wrap;html=1;" vertex="1" parent="vTrTwZQF_lzcv5GR676D-269">
          <mxGeometry y="97.56687898089173" width="190" height="33.783439490445865" as="geometry" />
        </mxCell>
        <mxCell id="vTrTwZQF_lzcv5GR676D-273" value="w2053187_custTelNo" style="text;strokeColor=none;fillColor=none;align=left;verticalAlign=middle;spacingLeft=4;spacingRight=4;overflow=hidden;points=[[0,0.5],[1,0.5]];portConstraint=eastwest;rotatable=0;whiteSpace=wrap;html=1;" vertex="1" parent="vTrTwZQF_lzcv5GR676D-269">
          <mxGeometry y="131.3503184713376" width="190" height="33.783439490445865" as="geometry" />
        </mxCell>
        <mxCell id="vTrTwZQF_lzcv5GR676D-274" value="w2053187_custAddress" style="text;strokeColor=none;fillColor=none;align=left;verticalAlign=middle;spacingLeft=4;spacingRight=4;overflow=hidden;points=[[0,0.5],[1,0.5]];portConstraint=eastwest;rotatable=0;whiteSpace=wrap;html=1;" vertex="1" parent="vTrTwZQF_lzcv5GR676D-269">
          <mxGeometry y="165.13375796178346" width="190" height="33.783439490445865" as="geometry" />
        </mxCell>
        <mxCell id="vTrTwZQF_lzcv5GR676D-275" value="w2053187_custPostCode" style="text;strokeColor=none;fillColor=none;align=left;verticalAlign=middle;spacingLeft=4;spacingRight=4;overflow=hidden;points=[[0,0.5],[1,0.5]];portConstraint=eastwest;rotatable=0;whiteSpace=wrap;html=1;" vertex="1" parent="vTrTwZQF_lzcv5GR676D-269">
          <mxGeometry y="198.91719745222932" width="190" height="33.783439490445865" as="geometry" />
        </mxCell>
        <mxCell id="vTrTwZQF_lzcv5GR676D-277" value="" style="endArrow=none;html=1;rounded=0;entryX=0.507;entryY=1.011;entryDx=0;entryDy=0;entryPerimeter=0;" edge="1" parent="vTrTwZQF_lzcv5GR676D-666" target="vTrTwZQF_lzcv5GR676D-203">
          <mxGeometry width="50" height="50" relative="1" as="geometry">
            <mxPoint x="197" y="754.496815286624" as="sourcePoint" />
            <mxPoint x="197" y="590" as="targetPoint" />
          </mxGeometry>
        </mxCell>
        <mxCell id="vTrTwZQF_lzcv5GR676D-278" value="" style="endArrow=none;html=1;rounded=0;entryX=0.521;entryY=1.009;entryDx=0;entryDy=0;entryPerimeter=0;exitX=0.523;exitY=-0.001;exitDx=0;exitDy=0;exitPerimeter=0;" edge="1" source="vTrTwZQF_lzcv5GR676D-209" target="vTrTwZQF_lzcv5GR676D-208" parent="vTrTwZQF_lzcv5GR676D-666">
          <mxGeometry width="50" height="50" relative="1" as="geometry">
            <mxPoint x="193" y="1081.0700636942674" as="sourcePoint" />
            <mxPoint x="193" y="923.4140127388537" as="targetPoint" />
          </mxGeometry>
        </mxCell>
        <mxCell id="vTrTwZQF_lzcv5GR676D-282" value="" style="endArrow=none;html=1;rounded=0;exitX=1;exitY=0.5;exitDx=0;exitDy=0;entryX=0;entryY=0.5;entryDx=0;entryDy=0;" edge="1" parent="vTrTwZQF_lzcv5GR676D-666">
          <mxGeometry width="50" height="50" relative="1" as="geometry">
            <mxPoint x="760" y="858.7210191082804" as="sourcePoint" />
            <mxPoint x="930" y="858.7210191082804" as="targetPoint" />
          </mxGeometry>
        </mxCell>
        <mxCell id="vTrTwZQF_lzcv5GR676D-283" value="" style="endArrow=none;html=1;rounded=0;entryX=0.521;entryY=1.009;entryDx=0;entryDy=0;entryPerimeter=0;" edge="1" parent="vTrTwZQF_lzcv5GR676D-666">
          <mxGeometry width="50" height="50" relative="1" as="geometry">
            <mxPoint x="1050" y="765.7579617834394" as="sourcePoint" />
            <mxPoint x="1050" y="664.4076433121018" as="targetPoint" />
          </mxGeometry>
        </mxCell>
        <mxCell id="vTrTwZQF_lzcv5GR676D-284" value="" style="endArrow=none;html=1;rounded=0;entryX=0.75;entryY=0;entryDx=0;entryDy=0;exitX=0.223;exitY=0.007;exitDx=0;exitDy=0;exitPerimeter=0;" edge="1" target="vTrTwZQF_lzcv5GR676D-260" parent="vTrTwZQF_lzcv5GR676D-666" source="vTrTwZQF_lzcv5GR676D-331">
          <mxGeometry width="50" height="50" relative="1" as="geometry">
            <mxPoint x="1160" y="225.62833121019094" as="sourcePoint" />
            <mxPoint x="1410" y="225.22292993630572" as="targetPoint" />
            <Array as="points">
              <mxPoint x="1510" y="225.22292993630572" />
            </Array>
          </mxGeometry>
        </mxCell>
        <mxCell id="vTrTwZQF_lzcv5GR676D-285" value="" style="endArrow=none;html=1;rounded=0;entryX=0.521;entryY=1.009;entryDx=0;entryDy=0;entryPerimeter=0;exitX=0.371;exitY=0.001;exitDx=0;exitDy=0;exitPerimeter=0;" edge="1" source="vTrTwZQF_lzcv5GR676D-233" parent="vTrTwZQF_lzcv5GR676D-666">
          <mxGeometry width="50" height="50" relative="1" as="geometry">
            <mxPoint x="500" y="1081.0700636942674" as="sourcePoint" />
            <mxPoint x="620" y="934.6751592356686" as="targetPoint" />
            <Array as="points">
              <mxPoint x="500" y="1036.0254777070063" />
              <mxPoint x="620" y="1036.0254777070063" />
            </Array>
          </mxGeometry>
        </mxCell>
        <mxCell id="vTrTwZQF_lzcv5GR676D-286" value="" style="endArrow=none;html=1;rounded=0;entryX=0.521;entryY=1.009;entryDx=0;entryDy=0;entryPerimeter=0;exitX=0.632;exitY=0.002;exitDx=0;exitDy=0;exitPerimeter=0;" edge="1" source="vTrTwZQF_lzcv5GR676D-244" parent="vTrTwZQF_lzcv5GR676D-666">
          <mxGeometry width="50" height="50" relative="1" as="geometry">
            <mxPoint x="830" y="1081.0700636942674" as="sourcePoint" />
            <mxPoint x="730" y="934.6751592356686" as="targetPoint" />
            <Array as="points">
              <mxPoint x="830" y="1036.0254777070063" />
              <mxPoint x="730" y="1036.0254777070063" />
            </Array>
          </mxGeometry>
        </mxCell>
        <mxCell id="vTrTwZQF_lzcv5GR676D-287" value="" style="endArrow=none;html=1;rounded=0;entryX=0.741;entryY=1.006;entryDx=0;entryDy=0;entryPerimeter=0;exitX=0;exitY=0;exitDx=0;exitDy=0;exitPerimeter=0;" edge="1" source="vTrTwZQF_lzcv5GR676D-207" target="vTrTwZQF_lzcv5GR676D-268" parent="vTrTwZQF_lzcv5GR676D-666">
          <mxGeometry width="50" height="50" relative="1" as="geometry">
            <mxPoint x="98" y="855.8471337579617" as="sourcePoint" />
            <mxPoint x="1453" y="1644.127388535032" as="targetPoint" />
            <Array as="points">
              <mxPoint x="60" y="852" />
              <mxPoint x="60" y="1621.6050955414012" />
              <mxPoint x="1510" y="1621.6050955414012" />
            </Array>
          </mxGeometry>
        </mxCell>
        <mxCell id="vTrTwZQF_lzcv5GR676D-290" value="" style="shape=mxgraph.arrows2.wedgeArrow;html=1;bendable=0;startWidth=4.918032786885249;fillColor=strokeColor;defaultFillColor=invert;defaultGradientColor=invert;rounded=0;" edge="1" parent="vTrTwZQF_lzcv5GR676D-666">
          <mxGeometry width="100" height="100" relative="1" as="geometry">
            <mxPoint x="600" y="1013.503184713376" as="sourcePoint" />
            <mxPoint x="600" y="1024.764331210191" as="targetPoint" />
          </mxGeometry>
        </mxCell>
        <mxCell id="vTrTwZQF_lzcv5GR676D-292" value="" style="shape=mxgraph.arrows2.wedgeArrow;html=1;bendable=0;startWidth=4.918032786885249;fillColor=strokeColor;defaultFillColor=invert;defaultGradientColor=invert;rounded=0;" edge="1" parent="vTrTwZQF_lzcv5GR676D-666">
          <mxGeometry width="100" height="100" relative="1" as="geometry">
            <mxPoint x="750" y="1013.503184713376" as="sourcePoint" />
            <mxPoint x="750" y="1024.764331210191" as="targetPoint" />
          </mxGeometry>
        </mxCell>
        <mxCell id="vTrTwZQF_lzcv5GR676D-293" value="" style="shape=mxgraph.arrows2.wedgeArrow;html=1;bendable=0;startWidth=4.918032786885249;fillColor=strokeColor;defaultFillColor=invert;defaultGradientColor=invert;rounded=0;" edge="1" parent="vTrTwZQF_lzcv5GR676D-666">
          <mxGeometry width="100" height="100" relative="1" as="geometry">
            <mxPoint x="210" y="731.9745222929937" as="sourcePoint" />
            <mxPoint x="210" y="743.2356687898091" as="targetPoint" />
          </mxGeometry>
        </mxCell>
        <mxCell id="vTrTwZQF_lzcv5GR676D-294" value="" style="shape=mxgraph.arrows2.wedgeArrow;html=1;bendable=0;startWidth=4.918032786885249;fillColor=strokeColor;defaultFillColor=invert;defaultGradientColor=invert;rounded=0;" edge="1" parent="vTrTwZQF_lzcv5GR676D-666">
          <mxGeometry width="100" height="100" relative="1" as="geometry">
            <mxPoint x="865" y="838.7639745222932" as="sourcePoint" />
            <mxPoint x="875" y="838.7639745222932" as="targetPoint" />
          </mxGeometry>
        </mxCell>
        <mxCell id="vTrTwZQF_lzcv5GR676D-298" value="" style="shape=mxgraph.arrows2.wedgeArrow;html=1;bendable=0;startWidth=4.918032786885249;fillColor=strokeColor;defaultFillColor=invert;defaultGradientColor=invert;rounded=0;" edge="1" parent="vTrTwZQF_lzcv5GR676D-666">
          <mxGeometry width="100" height="100" relative="1" as="geometry">
            <mxPoint x="1064.81" y="731.9745222929937" as="sourcePoint" />
            <mxPoint x="1064.81" y="743.2356687898091" as="targetPoint" />
          </mxGeometry>
        </mxCell>
        <mxCell id="vTrTwZQF_lzcv5GR676D-299" value="" style="shape=mxgraph.arrows2.wedgeArrow;html=1;bendable=0;startWidth=4.590163934426229;fillColor=strokeColor;defaultFillColor=invert;defaultGradientColor=invert;rounded=0;" edge="1" parent="vTrTwZQF_lzcv5GR676D-666">
          <mxGeometry width="100" height="100" relative="1" as="geometry">
            <mxPoint x="1233" y="842.1085350318472" as="sourcePoint" />
            <mxPoint x="1223" y="842.1085350318472" as="targetPoint" />
          </mxGeometry>
        </mxCell>
        <mxCell id="vTrTwZQF_lzcv5GR676D-300" value="" style="shape=mxgraph.arrows2.wedgeArrow;html=1;bendable=0;startWidth=4.918032786885249;fillColor=strokeColor;defaultFillColor=invert;defaultGradientColor=invert;rounded=0;" edge="1" parent="vTrTwZQF_lzcv5GR676D-666">
          <mxGeometry width="100" height="100" relative="1" as="geometry">
            <mxPoint x="1530" y="563.0573248407645" as="sourcePoint" />
            <mxPoint x="1530" y="574.3184713375795" as="targetPoint" />
          </mxGeometry>
        </mxCell>
        <mxCell id="vTrTwZQF_lzcv5GR676D-301" value="" style="shape=mxgraph.arrows2.wedgeArrow;html=1;bendable=0;startWidth=4.918032786885249;fillColor=strokeColor;defaultFillColor=invert;defaultGradientColor=invert;rounded=0;" edge="1" parent="vTrTwZQF_lzcv5GR676D-666">
          <mxGeometry width="100" height="100" relative="1" as="geometry">
            <mxPoint x="820" y="1600.771974522293" as="sourcePoint" />
            <mxPoint x="830" y="1600.771974522293" as="targetPoint" />
          </mxGeometry>
        </mxCell>
        <mxCell id="vTrTwZQF_lzcv5GR676D-304" value="&lt;font style=&quot;font-size: 16px;&quot;&gt;&lt;b&gt;is for&lt;/b&gt;&lt;/font&gt;" style="text;html=1;align=center;verticalAlign=middle;whiteSpace=wrap;rounded=0;" vertex="1" parent="vTrTwZQF_lzcv5GR676D-666">
          <mxGeometry x="200" y="686.9299363057326" width="50" height="33.783439490445865" as="geometry" />
        </mxCell>
        <mxCell id="vTrTwZQF_lzcv5GR676D-309" value="&lt;font style=&quot;font-size: 16px;&quot;&gt;&lt;b&gt;places&lt;/b&gt;&lt;/font&gt;" style="text;html=1;align=center;verticalAlign=middle;whiteSpace=wrap;rounded=0;" vertex="1" parent="vTrTwZQF_lzcv5GR676D-666">
          <mxGeometry x="1500" y="529.2738853503183" width="94.5" height="33.783439490445865" as="geometry" />
        </mxCell>
        <mxCell id="vTrTwZQF_lzcv5GR676D-310" value="&lt;font style=&quot;font-size: 16px;&quot;&gt;&lt;b&gt;makes use of&lt;/b&gt;&lt;/font&gt;" style="text;html=1;align=center;verticalAlign=middle;whiteSpace=wrap;rounded=0;" vertex="1" parent="vTrTwZQF_lzcv5GR676D-666">
          <mxGeometry x="1040" y="684.6777070063695" width="80" height="33.783439490445865" as="geometry" />
        </mxCell>
        <mxCell id="vTrTwZQF_lzcv5GR676D-311" value="&lt;font style=&quot;font-size: 16px;&quot;&gt;&lt;b&gt;has&lt;/b&gt;&lt;/font&gt;" style="text;html=1;align=center;verticalAlign=middle;whiteSpace=wrap;rounded=0;" vertex="1" parent="vTrTwZQF_lzcv5GR676D-666">
          <mxGeometry x="803.5" y="820.9375796178347" width="80" height="33.783439490445865" as="geometry" />
        </mxCell>
        <mxCell id="vTrTwZQF_lzcv5GR676D-312" value="&lt;font style=&quot;font-size: 16px;&quot;&gt;&lt;b&gt;is for&lt;/b&gt;&lt;/font&gt;" style="text;html=1;align=center;verticalAlign=middle;whiteSpace=wrap;rounded=0;" vertex="1" parent="vTrTwZQF_lzcv5GR676D-666">
          <mxGeometry x="1219" y="824.3159235668791" width="80" height="33.783439490445865" as="geometry" />
        </mxCell>
        <mxCell id="vTrTwZQF_lzcv5GR676D-313" value="&lt;font style=&quot;font-size: 16px;&quot;&gt;&lt;b&gt;processes&lt;/b&gt;&lt;/font&gt;" style="text;html=1;align=center;verticalAlign=middle;whiteSpace=wrap;rounded=0;" vertex="1" parent="vTrTwZQF_lzcv5GR676D-666">
          <mxGeometry x="723" y="1583.191082802548" width="94.5" height="33.783439490445865" as="geometry" />
        </mxCell>
        <mxCell id="vTrTwZQF_lzcv5GR676D-314" value="&lt;font style=&quot;font-size: 16px;&quot;&gt;&lt;b&gt;can be&lt;/b&gt;&lt;/font&gt;" style="text;html=1;align=center;verticalAlign=middle;whiteSpace=wrap;rounded=0;" vertex="1" parent="vTrTwZQF_lzcv5GR676D-666">
          <mxGeometry x="576" y="968.4585987261148" width="50" height="33.783439490445865" as="geometry" />
        </mxCell>
        <mxCell id="vTrTwZQF_lzcv5GR676D-315" value="&lt;font style=&quot;font-size: 16px;&quot;&gt;&lt;b&gt;can be&lt;/b&gt;&lt;/font&gt;" style="text;html=1;align=center;verticalAlign=middle;whiteSpace=wrap;rounded=0;" vertex="1" parent="vTrTwZQF_lzcv5GR676D-666">
          <mxGeometry x="725" y="968.4585987261148" width="50" height="33.783439490445865" as="geometry" />
        </mxCell>
        <mxCell id="vTrTwZQF_lzcv5GR676D-316" value="" style="swimlane;startSize=0;" vertex="1" parent="vTrTwZQF_lzcv5GR676D-666">
          <mxGeometry width="1620" height="1768" as="geometry" />
        </mxCell>
        <mxCell id="vTrTwZQF_lzcv5GR676D-317" value="&lt;font size=&quot;1&quot; style=&quot;&quot;&gt;&lt;b style=&quot;font-size: 18px;&quot;&gt;1..1&lt;/b&gt;&lt;/font&gt;" style="text;html=1;align=center;verticalAlign=middle;whiteSpace=wrap;rounded=0;" vertex="1" parent="vTrTwZQF_lzcv5GR676D-316">
          <mxGeometry x="121.5" y="349.99668789808914" width="94.5" height="33.783439490445865" as="geometry" />
        </mxCell>
        <mxCell id="vTrTwZQF_lzcv5GR676D-318" value="&lt;font size=&quot;1&quot; style=&quot;&quot;&gt;&lt;b style=&quot;font-size: 18px;&quot;&gt;0..*&lt;/b&gt;&lt;/font&gt;" style="text;html=1;align=center;verticalAlign=middle;whiteSpace=wrap;rounded=0;" vertex="1" parent="vTrTwZQF_lzcv5GR676D-316">
          <mxGeometry x="121.5" y="427.9235668789809" width="94.5" height="33.783439490445865" as="geometry" />
        </mxCell>
        <mxCell id="vTrTwZQF_lzcv5GR676D-319" value="&lt;font size=&quot;1&quot; style=&quot;&quot;&gt;&lt;b style=&quot;font-size: 18px;&quot;&gt;0..*&lt;/b&gt;&lt;/font&gt;" style="text;html=1;align=center;verticalAlign=middle;whiteSpace=wrap;rounded=0;" vertex="1" parent="vTrTwZQF_lzcv5GR676D-316">
          <mxGeometry x="121.5" y="596.8407643312102" width="94.5" height="33.783439490445865" as="geometry" />
        </mxCell>
        <mxCell id="vTrTwZQF_lzcv5GR676D-320" value="&lt;font size=&quot;1&quot; style=&quot;&quot;&gt;&lt;b style=&quot;font-size: 18px;&quot;&gt;1..1&lt;/b&gt;&lt;/font&gt;" style="text;html=1;align=center;verticalAlign=middle;whiteSpace=wrap;rounded=0;" vertex="1" parent="vTrTwZQF_lzcv5GR676D-316">
          <mxGeometry x="121.5" y="720.7133757961783" width="94.5" height="33.783439490445865" as="geometry" />
        </mxCell>
        <mxCell id="vTrTwZQF_lzcv5GR676D-321" value="&lt;font size=&quot;1&quot; style=&quot;&quot;&gt;&lt;b style=&quot;font-size: 18px;&quot;&gt;1..1&lt;/b&gt;&lt;/font&gt;" style="text;html=1;align=center;verticalAlign=middle;whiteSpace=wrap;rounded=0;" vertex="1" parent="vTrTwZQF_lzcv5GR676D-316">
          <mxGeometry x="131.5" y="923.4140127388534" width="94.5" height="33.783439490445865" as="geometry" />
        </mxCell>
        <mxCell id="vTrTwZQF_lzcv5GR676D-322" value="&lt;font size=&quot;1&quot; style=&quot;&quot;&gt;&lt;b style=&quot;font-size: 18px;&quot;&gt;0..1&lt;/b&gt;&lt;/font&gt;" style="text;html=1;align=center;verticalAlign=middle;whiteSpace=wrap;rounded=0;" vertex="1" parent="vTrTwZQF_lzcv5GR676D-316">
          <mxGeometry x="34" y="824.3159235668791" width="94.5" height="33.783439490445865" as="geometry" />
        </mxCell>
        <mxCell id="vTrTwZQF_lzcv5GR676D-331" value="&lt;font size=&quot;1&quot; style=&quot;&quot;&gt;&lt;b style=&quot;font-size: 18px;&quot;&gt;1..1&lt;/b&gt;&lt;/font&gt;" style="text;html=1;align=center;verticalAlign=middle;whiteSpace=wrap;rounded=0;" vertex="1" parent="vTrTwZQF_lzcv5GR676D-316">
          <mxGeometry x="1183" y="225.22292993630572" width="94.5" height="33.783439490445865" as="geometry" />
        </mxCell>
        <mxCell id="vTrTwZQF_lzcv5GR676D-333" value="&lt;font size=&quot;1&quot; style=&quot;&quot;&gt;&lt;b style=&quot;font-size: 18px;&quot;&gt;1..1&lt;/b&gt;&lt;/font&gt;" style="text;html=1;align=center;verticalAlign=middle;whiteSpace=wrap;rounded=0;" vertex="1" parent="vTrTwZQF_lzcv5GR676D-316">
          <mxGeometry x="740" y="822.0636942675159" width="94.5" height="33.783439490445865" as="geometry" />
        </mxCell>
        <mxCell id="vTrTwZQF_lzcv5GR676D-334" value="&lt;font size=&quot;1&quot; style=&quot;&quot;&gt;&lt;b style=&quot;font-size: 18px;&quot;&gt;1..1&lt;/b&gt;&lt;/font&gt;" style="text;html=1;align=center;verticalAlign=middle;whiteSpace=wrap;rounded=0;" vertex="1" parent="vTrTwZQF_lzcv5GR676D-316">
          <mxGeometry x="705" y="934.6751592356688" width="94.5" height="33.783439490445865" as="geometry" />
        </mxCell>
        <mxCell id="vTrTwZQF_lzcv5GR676D-335" value="&lt;font size=&quot;1&quot; style=&quot;&quot;&gt;&lt;b style=&quot;font-size: 18px;&quot;&gt;1..1&lt;/b&gt;&lt;/font&gt;" style="text;html=1;align=center;verticalAlign=middle;whiteSpace=wrap;rounded=0;" vertex="1" parent="vTrTwZQF_lzcv5GR676D-316">
          <mxGeometry x="550" y="934.6751592356688" width="94.5" height="33.783439490445865" as="geometry" />
        </mxCell>
        <mxCell id="vTrTwZQF_lzcv5GR676D-336" value="&lt;font size=&quot;1&quot; style=&quot;&quot;&gt;&lt;b style=&quot;font-size: 18px;&quot;&gt;0..1&lt;/b&gt;&lt;/font&gt;" style="text;html=1;align=center;verticalAlign=middle;whiteSpace=wrap;rounded=0;" vertex="1" parent="vTrTwZQF_lzcv5GR676D-316">
          <mxGeometry x="480" y="1047.2866242038217" width="94.5" height="33.783439490445865" as="geometry" />
        </mxCell>
        <mxCell id="vTrTwZQF_lzcv5GR676D-337" value="&lt;font size=&quot;1&quot; style=&quot;&quot;&gt;&lt;b style=&quot;font-size: 18px;&quot;&gt;0..1&lt;/b&gt;&lt;/font&gt;" style="text;html=1;align=center;verticalAlign=middle;whiteSpace=wrap;rounded=0;" vertex="1" parent="vTrTwZQF_lzcv5GR676D-316">
          <mxGeometry x="760" y="1047.2866242038217" width="94.5" height="33.783439490445865" as="geometry" />
        </mxCell>
        <mxCell id="vTrTwZQF_lzcv5GR676D-338" value="&lt;font size=&quot;1&quot; style=&quot;&quot;&gt;&lt;b style=&quot;font-size: 18px;&quot;&gt;1..*&lt;/b&gt;&lt;/font&gt;" style="text;html=1;align=center;verticalAlign=middle;whiteSpace=wrap;rounded=0;" vertex="1" parent="vTrTwZQF_lzcv5GR676D-316">
          <mxGeometry x="859.5" y="822.0636942675159" width="94.5" height="33.783439490445865" as="geometry" />
        </mxCell>
        <mxCell id="vTrTwZQF_lzcv5GR676D-339" value="&lt;font size=&quot;1&quot; style=&quot;&quot;&gt;&lt;b style=&quot;font-size: 18px;&quot;&gt;1..1&lt;/b&gt;&lt;/font&gt;" style="text;html=1;align=center;verticalAlign=middle;whiteSpace=wrap;rounded=0;" vertex="1" parent="vTrTwZQF_lzcv5GR676D-316">
          <mxGeometry x="975" y="731.9745222929936" width="94.5" height="33.783439490445865" as="geometry" />
        </mxCell>
        <mxCell id="vTrTwZQF_lzcv5GR676D-340" value="&lt;font size=&quot;1&quot; style=&quot;&quot;&gt;&lt;b style=&quot;font-size: 18px;&quot;&gt;1..*&lt;/b&gt;&lt;/font&gt;" style="text;html=1;align=center;verticalAlign=middle;whiteSpace=wrap;rounded=0;" vertex="1" parent="vTrTwZQF_lzcv5GR676D-316">
          <mxGeometry x="975" y="670.0382165605096" width="94.5" height="33.783439490445865" as="geometry" />
        </mxCell>
        <mxCell id="vTrTwZQF_lzcv5GR676D-341" value="&lt;font size=&quot;1&quot; style=&quot;&quot;&gt;&lt;b style=&quot;font-size: 18px;&quot;&gt;0..*&lt;/b&gt;&lt;/font&gt;" style="text;html=1;align=center;verticalAlign=middle;whiteSpace=wrap;rounded=0;" vertex="1" parent="vTrTwZQF_lzcv5GR676D-316">
          <mxGeometry x="1174" y="855.8471337579618" width="94.5" height="33.783439490445865" as="geometry" />
        </mxCell>
        <mxCell id="vTrTwZQF_lzcv5GR676D-342" value="&lt;font size=&quot;1&quot; style=&quot;&quot;&gt;&lt;b style=&quot;font-size: 18px;&quot;&gt;1..1&lt;/b&gt;&lt;/font&gt;" style="text;html=1;align=center;verticalAlign=middle;whiteSpace=wrap;rounded=0;" vertex="1" parent="vTrTwZQF_lzcv5GR676D-316">
          <mxGeometry x="1245" y="855.8471337579618" width="94.5" height="33.783439490445865" as="geometry" />
        </mxCell>
        <mxCell id="vTrTwZQF_lzcv5GR676D-343" value="&lt;font size=&quot;1&quot; style=&quot;&quot;&gt;&lt;b style=&quot;font-size: 18px;&quot;&gt;0..*&lt;/b&gt;&lt;/font&gt;" style="text;html=1;align=center;verticalAlign=middle;whiteSpace=wrap;rounded=0;" vertex="1" parent="vTrTwZQF_lzcv5GR676D-316">
          <mxGeometry x="1438" y="686.9299363057324" width="94.5" height="33.783439490445865" as="geometry" />
        </mxCell>
        <mxCell id="vTrTwZQF_lzcv5GR676D-344" value="&lt;font size=&quot;1&quot; style=&quot;&quot;&gt;&lt;b style=&quot;font-size: 18px;&quot;&gt;0..*&lt;/b&gt;&lt;/font&gt;" style="text;html=1;align=center;verticalAlign=middle;whiteSpace=wrap;rounded=0;" vertex="1" parent="vTrTwZQF_lzcv5GR676D-316">
          <mxGeometry x="1438" y="990.9808917197452" width="94.5" height="33.783439490445865" as="geometry" />
        </mxCell>
        <mxCell id="vTrTwZQF_lzcv5GR676D-499" value="w2053187_Hearing_Test" style="swimlane;fontStyle=0;childLayout=stackLayout;horizontal=1;startSize=30;horizontalStack=0;resizeParent=1;resizeParentMax=0;resizeLast=0;collapsible=1;marginBottom=0;whiteSpace=wrap;html=1;" vertex="1" parent="vTrTwZQF_lzcv5GR676D-316">
          <mxGeometry x="385" y="49.99566878980892" width="250" height="367.83439490445863" as="geometry" />
        </mxCell>
        <mxCell id="vTrTwZQF_lzcv5GR676D-503" value="w2053187_testId {Pk}" style="text;strokeColor=none;fillColor=none;align=left;verticalAlign=middle;spacingLeft=4;spacingRight=4;overflow=hidden;points=[[0,0.5],[1,0.5]];portConstraint=eastwest;rotatable=0;whiteSpace=wrap;html=1;" vertex="1" parent="vTrTwZQF_lzcv5GR676D-499">
          <mxGeometry y="30" width="250" height="33.783439490445865" as="geometry" />
        </mxCell>
        <mxCell id="vTrTwZQF_lzcv5GR676D-500" value="w2053187_bookingRefNo {Ak}" style="text;strokeColor=none;fillColor=none;align=left;verticalAlign=middle;spacingLeft=4;spacingRight=4;overflow=hidden;points=[[0,0.5],[1,0.5]];portConstraint=eastwest;rotatable=0;whiteSpace=wrap;html=1;" vertex="1" parent="vTrTwZQF_lzcv5GR676D-499">
          <mxGeometry y="63.783439490445865" width="250" height="33.783439490445865" as="geometry" />
        </mxCell>
        <mxCell id="vTrTwZQF_lzcv5GR676D-506" value="w2053187_hearingLevel" style="text;strokeColor=none;fillColor=none;align=left;verticalAlign=middle;spacingLeft=4;spacingRight=4;overflow=hidden;points=[[0,0.5],[1,0.5]];portConstraint=eastwest;rotatable=0;whiteSpace=wrap;html=1;" vertex="1" parent="vTrTwZQF_lzcv5GR676D-499">
          <mxGeometry y="97.56687898089173" width="250" height="33.783439490445865" as="geometry" />
        </mxCell>
        <mxCell id="vTrTwZQF_lzcv5GR676D-504" value="w2053187_testDateTime" style="text;strokeColor=none;fillColor=none;align=left;verticalAlign=middle;spacingLeft=4;spacingRight=4;overflow=hidden;points=[[0,0.5],[1,0.5]];portConstraint=eastwest;rotatable=0;whiteSpace=wrap;html=1;" vertex="1" parent="vTrTwZQF_lzcv5GR676D-499">
          <mxGeometry y="131.3503184713376" width="250" height="33.783439490445865" as="geometry" />
        </mxCell>
        <mxCell id="vTrTwZQF_lzcv5GR676D-505" value="w2053187_testComments" style="text;strokeColor=none;fillColor=none;align=left;verticalAlign=middle;spacingLeft=4;spacingRight=4;overflow=hidden;points=[[0,0.5],[1,0.5]];portConstraint=eastwest;rotatable=0;whiteSpace=wrap;html=1;" vertex="1" parent="vTrTwZQF_lzcv5GR676D-499">
          <mxGeometry y="165.13375796178346" width="250" height="33.783439490445865" as="geometry" />
        </mxCell>
        <mxCell id="vTrTwZQF_lzcv5GR676D-501" value="w2053187_bookingDateTime" style="text;strokeColor=none;fillColor=none;align=left;verticalAlign=middle;spacingLeft=4;spacingRight=4;overflow=hidden;points=[[0,0.5],[1,0.5]];portConstraint=eastwest;rotatable=0;whiteSpace=wrap;html=1;" vertex="1" parent="vTrTwZQF_lzcv5GR676D-499">
          <mxGeometry y="198.91719745222932" width="250" height="33.783439490445865" as="geometry" />
        </mxCell>
        <mxCell id="vTrTwZQF_lzcv5GR676D-502" value="w2053187_bookingStatus" style="text;strokeColor=none;fillColor=none;align=left;verticalAlign=middle;spacingLeft=4;spacingRight=4;overflow=hidden;points=[[0,0.5],[1,0.5]];portConstraint=eastwest;rotatable=0;whiteSpace=wrap;html=1;" vertex="1" parent="vTrTwZQF_lzcv5GR676D-499">
          <mxGeometry y="232.70063694267517" width="250" height="33.783439490445865" as="geometry" />
        </mxCell>
        <mxCell id="vTrTwZQF_lzcv5GR676D-509" value="w2053187_branchId {Fk}" style="text;strokeColor=none;fillColor=none;align=left;verticalAlign=middle;spacingLeft=4;spacingRight=4;overflow=hidden;points=[[0,0.5],[1,0.5]];portConstraint=eastwest;rotatable=0;whiteSpace=wrap;html=1;" vertex="1" parent="vTrTwZQF_lzcv5GR676D-499">
          <mxGeometry y="266.48407643312106" width="250" height="33.783439490445865" as="geometry" />
        </mxCell>
        <mxCell id="vTrTwZQF_lzcv5GR676D-510" value="w2053187_customerId {Fk}" style="text;strokeColor=none;fillColor=none;align=left;verticalAlign=middle;spacingLeft=4;spacingRight=4;overflow=hidden;points=[[0,0.5],[1,0.5]];portConstraint=eastwest;rotatable=0;whiteSpace=wrap;html=1;" vertex="1" parent="vTrTwZQF_lzcv5GR676D-499">
          <mxGeometry y="300.2675159235669" width="250" height="33.783439490445865" as="geometry" />
        </mxCell>
        <mxCell id="vTrTwZQF_lzcv5GR676D-511" value="w2053187_staffId {Fk}" style="text;strokeColor=none;fillColor=none;align=left;verticalAlign=middle;spacingLeft=4;spacingRight=4;overflow=hidden;points=[[0,0.5],[1,0.5]];portConstraint=eastwest;rotatable=0;whiteSpace=wrap;html=1;" vertex="1" parent="vTrTwZQF_lzcv5GR676D-499">
          <mxGeometry y="334.0509554140128" width="250" height="33.783439490445865" as="geometry" />
        </mxCell>
        <mxCell id="vTrTwZQF_lzcv5GR676D-512" value="w2053187_Vision_Test" style="swimlane;fontStyle=0;childLayout=stackLayout;horizontal=1;startSize=30;horizontalStack=0;resizeParent=1;resizeParentMax=0;resizeLast=0;collapsible=1;marginBottom=0;whiteSpace=wrap;html=1;" vertex="1" parent="vTrTwZQF_lzcv5GR676D-316">
          <mxGeometry x="655" y="38.91000000000008" width="250" height="390" as="geometry" />
        </mxCell>
        <mxCell id="vTrTwZQF_lzcv5GR676D-513" value="w2053187_testId {Pk}" style="text;strokeColor=none;fillColor=none;align=left;verticalAlign=middle;spacingLeft=4;spacingRight=4;overflow=hidden;points=[[0,0.5],[1,0.5]];portConstraint=eastwest;rotatable=0;whiteSpace=wrap;html=1;" vertex="1" parent="vTrTwZQF_lzcv5GR676D-512">
          <mxGeometry y="30" width="250" height="30" as="geometry" />
        </mxCell>
        <mxCell id="vTrTwZQF_lzcv5GR676D-514" value="w2053187_bookingRefNo {Ak}" style="text;strokeColor=none;fillColor=none;align=left;verticalAlign=middle;spacingLeft=4;spacingRight=4;overflow=hidden;points=[[0,0.5],[1,0.5]];portConstraint=eastwest;rotatable=0;whiteSpace=wrap;html=1;" vertex="1" parent="vTrTwZQF_lzcv5GR676D-512">
          <mxGeometry y="60" width="250" height="30" as="geometry" />
        </mxCell>
        <mxCell id="vTrTwZQF_lzcv5GR676D-520" value="w2053187_visualAcuity" style="text;strokeColor=none;fillColor=none;align=left;verticalAlign=middle;spacingLeft=4;spacingRight=4;overflow=hidden;points=[[0,0.5],[1,0.5]];portConstraint=eastwest;rotatable=0;whiteSpace=wrap;html=1;" vertex="1" parent="vTrTwZQF_lzcv5GR676D-512">
          <mxGeometry y="90" width="250" height="30" as="geometry" />
        </mxCell>
        <mxCell id="vTrTwZQF_lzcv5GR676D-521" value="w2053187_retinoscopy" style="text;strokeColor=none;fillColor=none;align=left;verticalAlign=middle;spacingLeft=4;spacingRight=4;overflow=hidden;points=[[0,0.5],[1,0.5]];portConstraint=eastwest;rotatable=0;whiteSpace=wrap;html=1;" vertex="1" parent="vTrTwZQF_lzcv5GR676D-512">
          <mxGeometry y="120" width="250" height="30" as="geometry" />
        </mxCell>
        <mxCell id="vTrTwZQF_lzcv5GR676D-522" value="w2053187_refraction" style="text;strokeColor=none;fillColor=none;align=left;verticalAlign=middle;spacingLeft=4;spacingRight=4;overflow=hidden;points=[[0,0.5],[1,0.5]];portConstraint=eastwest;rotatable=0;whiteSpace=wrap;html=1;" vertex="1" parent="vTrTwZQF_lzcv5GR676D-512">
          <mxGeometry y="150" width="250" height="30" as="geometry" />
        </mxCell>
        <mxCell id="vTrTwZQF_lzcv5GR676D-517" value="w2053187_testDateTime" style="text;strokeColor=none;fillColor=none;align=left;verticalAlign=middle;spacingLeft=4;spacingRight=4;overflow=hidden;points=[[0,0.5],[1,0.5]];portConstraint=eastwest;rotatable=0;whiteSpace=wrap;html=1;" vertex="1" parent="vTrTwZQF_lzcv5GR676D-512">
          <mxGeometry y="180" width="250" height="30" as="geometry" />
        </mxCell>
        <mxCell id="vTrTwZQF_lzcv5GR676D-518" value="w2053187_testComments" style="text;strokeColor=none;fillColor=none;align=left;verticalAlign=middle;spacingLeft=4;spacingRight=4;overflow=hidden;points=[[0,0.5],[1,0.5]];portConstraint=eastwest;rotatable=0;whiteSpace=wrap;html=1;" vertex="1" parent="vTrTwZQF_lzcv5GR676D-512">
          <mxGeometry y="210" width="250" height="30" as="geometry" />
        </mxCell>
        <mxCell id="vTrTwZQF_lzcv5GR676D-525" value="w2053187_bookingDateTime" style="text;strokeColor=none;fillColor=none;align=left;verticalAlign=middle;spacingLeft=4;spacingRight=4;overflow=hidden;points=[[0,0.5],[1,0.5]];portConstraint=eastwest;rotatable=0;whiteSpace=wrap;html=1;" vertex="1" parent="vTrTwZQF_lzcv5GR676D-512">
          <mxGeometry y="240" width="250" height="30" as="geometry" />
        </mxCell>
        <mxCell id="vTrTwZQF_lzcv5GR676D-515" value="w2053187_bookingStatus" style="text;strokeColor=none;fillColor=none;align=left;verticalAlign=middle;spacingLeft=4;spacingRight=4;overflow=hidden;points=[[0,0.5],[1,0.5]];portConstraint=eastwest;rotatable=0;whiteSpace=wrap;html=1;" vertex="1" parent="vTrTwZQF_lzcv5GR676D-512">
          <mxGeometry y="270" width="250" height="30" as="geometry" />
        </mxCell>
        <mxCell id="vTrTwZQF_lzcv5GR676D-526" value="w2053187_branchId {Fk}" style="text;strokeColor=none;fillColor=none;align=left;verticalAlign=middle;spacingLeft=4;spacingRight=4;overflow=hidden;points=[[0,0.5],[1,0.5]];portConstraint=eastwest;rotatable=0;whiteSpace=wrap;html=1;" vertex="1" parent="vTrTwZQF_lzcv5GR676D-512">
          <mxGeometry y="300" width="250" height="30" as="geometry" />
        </mxCell>
        <mxCell id="vTrTwZQF_lzcv5GR676D-523" value="w2053187_customerId {Fk}" style="text;strokeColor=none;fillColor=none;align=left;verticalAlign=middle;spacingLeft=4;spacingRight=4;overflow=hidden;points=[[0,0.5],[1,0.5]];portConstraint=eastwest;rotatable=0;whiteSpace=wrap;html=1;" vertex="1" parent="vTrTwZQF_lzcv5GR676D-512">
          <mxGeometry y="330" width="250" height="30" as="geometry" />
        </mxCell>
        <mxCell id="vTrTwZQF_lzcv5GR676D-524" value="w2053187_staffId {Fk}" style="text;strokeColor=none;fillColor=none;align=left;verticalAlign=middle;spacingLeft=4;spacingRight=4;overflow=hidden;points=[[0,0.5],[1,0.5]];portConstraint=eastwest;rotatable=0;whiteSpace=wrap;html=1;" vertex="1" parent="vTrTwZQF_lzcv5GR676D-512">
          <mxGeometry y="360" width="250" height="30" as="geometry" />
        </mxCell>
        <mxCell id="vTrTwZQF_lzcv5GR676D-556" value="" style="endArrow=none;html=1;rounded=0;exitX=1;exitY=0.5;exitDx=0;exitDy=0;entryX=-0.004;entryY=0.228;entryDx=0;entryDy=0;entryPerimeter=0;" edge="1" parent="vTrTwZQF_lzcv5GR676D-316">
          <mxGeometry width="50" height="50" relative="1" as="geometry">
            <mxPoint x="1200.0000000000002" y="858.1031210191086" as="sourcePoint" />
            <mxPoint x="1308.92" y="858.4363184713379" as="targetPoint" />
          </mxGeometry>
        </mxCell>
        <mxCell id="vTrTwZQF_lzcv5GR676D-559" value="" style="endArrow=none;html=1;rounded=0;entryX=0.5;entryY=0;entryDx=0;entryDy=0;" edge="1" parent="vTrTwZQF_lzcv5GR676D-316" target="vTrTwZQF_lzcv5GR676D-269">
          <mxGeometry width="50" height="50" relative="1" as="geometry">
            <mxPoint x="905" y="60" as="sourcePoint" />
            <mxPoint x="955" y="10" as="targetPoint" />
            <Array as="points">
              <mxPoint x="1109" y="60" />
            </Array>
          </mxGeometry>
        </mxCell>
        <mxCell id="vTrTwZQF_lzcv5GR676D-302" value="&lt;font style=&quot;font-size: 16px;&quot;&gt;&lt;b&gt;takes place at&lt;/b&gt;&lt;/font&gt;" style="text;html=1;align=center;verticalAlign=middle;whiteSpace=wrap;rounded=0;" vertex="1" parent="vTrTwZQF_lzcv5GR676D-316">
          <mxGeometry x="216" y="100" width="125" height="30" as="geometry" />
        </mxCell>
        <mxCell id="vTrTwZQF_lzcv5GR676D-566" value="&lt;font style=&quot;font-size: 16px;&quot;&gt;&lt;b&gt;undertakes&lt;/b&gt;&lt;/font&gt;" style="text;html=1;align=center;verticalAlign=middle;whiteSpace=wrap;rounded=0;" vertex="1" parent="vTrTwZQF_lzcv5GR676D-316">
          <mxGeometry x="262" y="650" width="94.5" height="30" as="geometry" />
        </mxCell>
        <mxCell id="vTrTwZQF_lzcv5GR676D-306" value="&lt;font style=&quot;font-size: 16px;&quot;&gt;&lt;b&gt;undertakes&lt;/b&gt;&lt;/font&gt;" style="text;html=1;align=center;verticalAlign=middle;whiteSpace=wrap;rounded=0;" vertex="1" parent="vTrTwZQF_lzcv5GR676D-316">
          <mxGeometry x="415" y="750" width="94.5" height="30" as="geometry" />
        </mxCell>
        <mxCell id="vTrTwZQF_lzcv5GR676D-567" value="&lt;font style=&quot;font-size: 16px;&quot;&gt;&lt;b&gt;produces&lt;/b&gt;&lt;/font&gt;" style="text;html=1;align=center;verticalAlign=middle;whiteSpace=wrap;rounded=0;" vertex="1" parent="vTrTwZQF_lzcv5GR676D-316">
          <mxGeometry x="775" y="496" width="94.5" height="30" as="geometry" />
        </mxCell>
        <mxCell id="vTrTwZQF_lzcv5GR676D-307" value="&lt;font style=&quot;font-size: 16px;&quot;&gt;&lt;b&gt;produces&lt;/b&gt;&lt;/font&gt;" style="text;html=1;align=center;verticalAlign=middle;whiteSpace=wrap;rounded=0;" vertex="1" parent="vTrTwZQF_lzcv5GR676D-316">
          <mxGeometry x="928" y="368.00000000000006" width="94.5" height="30" as="geometry" />
        </mxCell>
        <mxCell id="vTrTwZQF_lzcv5GR676D-308" value="&lt;font style=&quot;font-size: 16px;&quot;&gt;&lt;b&gt;makes&lt;/b&gt;&lt;/font&gt;" style="text;html=1;align=center;verticalAlign=middle;whiteSpace=wrap;rounded=0;" vertex="1" parent="vTrTwZQF_lzcv5GR676D-316">
          <mxGeometry x="955" y="60" width="94.5" height="30" as="geometry" />
        </mxCell>
        <mxCell id="vTrTwZQF_lzcv5GR676D-568" value="&lt;font style=&quot;font-size: 16px;&quot;&gt;&lt;b&gt;makes&lt;/b&gt;&lt;/font&gt;" style="text;html=1;align=center;verticalAlign=middle;whiteSpace=wrap;rounded=0;" vertex="1" parent="vTrTwZQF_lzcv5GR676D-316">
          <mxGeometry x="760" y="456.71" width="94.5" height="30" as="geometry" />
        </mxCell>
        <mxCell id="vTrTwZQF_lzcv5GR676D-569" value="" style="shape=mxgraph.arrows2.wedgeArrow;html=1;bendable=0;startWidth=4.918032786885249;fillColor=strokeColor;defaultFillColor=invert;defaultGradientColor=invert;rounded=0;" edge="1" parent="vTrTwZQF_lzcv5GR676D-316">
          <mxGeometry width="100" height="100" relative="1" as="geometry">
            <mxPoint x="339.05" y="650" as="sourcePoint" />
            <mxPoint x="339.05" y="640" as="targetPoint" />
          </mxGeometry>
        </mxCell>
        <mxCell id="vTrTwZQF_lzcv5GR676D-570" value="" style="shape=mxgraph.arrows2.wedgeArrow;html=1;bendable=0;startWidth=4.918032786885249;fillColor=strokeColor;defaultFillColor=invert;defaultGradientColor=invert;rounded=0;" edge="1" parent="vTrTwZQF_lzcv5GR676D-316">
          <mxGeometry width="100" height="100" relative="1" as="geometry">
            <mxPoint x="410.73" y="771" as="sourcePoint" />
            <mxPoint x="410.73" y="761" as="targetPoint" />
          </mxGeometry>
        </mxCell>
        <mxCell id="vTrTwZQF_lzcv5GR676D-571" value="" style="shape=mxgraph.arrows2.wedgeArrow;html=1;bendable=0;startWidth=4.590163934426229;fillColor=strokeColor;defaultFillColor=invert;defaultGradientColor=invert;rounded=0;" edge="1" parent="vTrTwZQF_lzcv5GR676D-316">
          <mxGeometry width="100" height="100" relative="1" as="geometry">
            <mxPoint x="220" y="35.83999999999992" as="sourcePoint" />
            <mxPoint x="210" y="35.83999999999992" as="targetPoint" />
          </mxGeometry>
        </mxCell>
        <mxCell id="vTrTwZQF_lzcv5GR676D-572" value="" style="shape=mxgraph.arrows2.wedgeArrow;html=1;bendable=0;startWidth=4.590163934426229;fillColor=strokeColor;defaultFillColor=invert;defaultGradientColor=invert;rounded=0;" edge="1" parent="vTrTwZQF_lzcv5GR676D-316">
          <mxGeometry width="100" height="100" relative="1" as="geometry">
            <mxPoint x="222" y="115.81999999999992" as="sourcePoint" />
            <mxPoint x="212" y="115.81999999999992" as="targetPoint" />
          </mxGeometry>
        </mxCell>
        <mxCell id="vTrTwZQF_lzcv5GR676D-289" value="" style="shape=mxgraph.arrows2.wedgeArrow;html=1;bendable=0;startWidth=4.918032786885249;fillColor=strokeColor;defaultFillColor=invert;defaultGradientColor=invert;rounded=0;" edge="1" parent="vTrTwZQF_lzcv5GR676D-316">
          <mxGeometry width="100" height="100" relative="1" as="geometry">
            <mxPoint x="204.99999999999997" y="399.62898089171995" as="sourcePoint" />
            <mxPoint x="204.99999999999997" y="388.36783439490455" as="targetPoint" />
          </mxGeometry>
        </mxCell>
        <mxCell id="vTrTwZQF_lzcv5GR676D-303" value="&lt;font style=&quot;font-size: 16px;&quot;&gt;&lt;b&gt;is for&lt;/b&gt;&lt;/font&gt;" style="text;html=1;align=center;verticalAlign=middle;whiteSpace=wrap;rounded=0;" vertex="1" parent="vTrTwZQF_lzcv5GR676D-316">
          <mxGeometry x="185" y="394.1401273885349" width="50" height="33.783439490445865" as="geometry" />
        </mxCell>
        <mxCell id="vTrTwZQF_lzcv5GR676D-573" value="" style="endArrow=none;html=1;rounded=0;entryX=0.685;entryY=1;entryDx=0;entryDy=0;entryPerimeter=0;exitX=0.663;exitY=-0.008;exitDx=0;exitDy=0;exitPerimeter=0;" edge="1" parent="vTrTwZQF_lzcv5GR676D-316">
          <mxGeometry width="50" height="50" relative="1" as="geometry">
            <mxPoint x="186.86" y="461.70620382165635" as="sourcePoint" />
            <mxPoint x="186.14999999999998" y="355.44713375796164" as="targetPoint" />
          </mxGeometry>
        </mxCell>
        <mxCell id="vTrTwZQF_lzcv5GR676D-575" value="" style="shape=mxgraph.arrows2.wedgeArrow;html=1;bendable=0;startWidth=4.918032786885249;fillColor=strokeColor;defaultFillColor=invert;defaultGradientColor=invert;rounded=0;" edge="1" parent="vTrTwZQF_lzcv5GR676D-316">
          <mxGeometry width="100" height="100" relative="1" as="geometry">
            <mxPoint x="865.5" y="512.89" as="sourcePoint" />
            <mxPoint x="875.5" y="512.89" as="targetPoint" />
          </mxGeometry>
        </mxCell>
        <mxCell id="vTrTwZQF_lzcv5GR676D-305" value="&lt;font style=&quot;font-size: 16px;&quot;&gt;&lt;b&gt;can be&lt;/b&gt;&lt;/font&gt;" style="text;html=1;align=center;verticalAlign=middle;whiteSpace=wrap;rounded=0;" vertex="1" parent="vTrTwZQF_lzcv5GR676D-316">
          <mxGeometry x="195" y="991.5015923566875" width="50" height="33.783439490445865" as="geometry" />
        </mxCell>
        <mxCell id="vTrTwZQF_lzcv5GR676D-291" value="" style="shape=mxgraph.arrows2.wedgeArrow;html=1;bendable=0;startWidth=4.918032786885249;fillColor=strokeColor;defaultFillColor=invert;defaultGradientColor=invert;rounded=0;" edge="1" parent="vTrTwZQF_lzcv5GR676D-316">
          <mxGeometry width="100" height="100" relative="1" as="geometry">
            <mxPoint x="219.84" y="1030.9961783439494" as="sourcePoint" />
            <mxPoint x="219.84" y="1042.2573248407643" as="targetPoint" />
          </mxGeometry>
        </mxCell>
        <mxCell id="vTrTwZQF_lzcv5GR676D-577" value="" style="shape=mxgraph.arrows2.wedgeArrow;html=1;bendable=0;startWidth=4.918032786885249;fillColor=strokeColor;defaultFillColor=invert;defaultGradientColor=invert;rounded=0;" edge="1" parent="vTrTwZQF_lzcv5GR676D-316">
          <mxGeometry width="100" height="100" relative="1" as="geometry">
            <mxPoint x="952" y="397.1361783439494" as="sourcePoint" />
            <mxPoint x="952" y="408.3973248407643" as="targetPoint" />
          </mxGeometry>
        </mxCell>
        <mxCell id="vTrTwZQF_lzcv5GR676D-645" value="" style="shape=mxgraph.arrows2.wedgeArrow;html=1;bendable=0;startWidth=4.590163934426229;fillColor=strokeColor;defaultFillColor=invert;defaultGradientColor=invert;rounded=0;" edge="1" parent="vTrTwZQF_lzcv5GR676D-316">
          <mxGeometry width="100" height="100" relative="1" as="geometry">
            <mxPoint x="970" y="76.99999999999994" as="sourcePoint" />
            <mxPoint x="960" y="76.99999999999994" as="targetPoint" />
          </mxGeometry>
        </mxCell>
        <mxCell id="vTrTwZQF_lzcv5GR676D-647" value="" style="shape=mxgraph.arrows2.wedgeArrow;html=1;bendable=0;startWidth=4.590163934426229;fillColor=strokeColor;defaultFillColor=invert;defaultGradientColor=invert;rounded=0;" edge="1" parent="vTrTwZQF_lzcv5GR676D-316">
          <mxGeometry width="100" height="100" relative="1" as="geometry">
            <mxPoint x="776" y="473.56999999999994" as="sourcePoint" />
            <mxPoint x="766" y="473.56999999999994" as="targetPoint" />
          </mxGeometry>
        </mxCell>
        <mxCell id="vTrTwZQF_lzcv5GR676D-648" value="&lt;font size=&quot;1&quot; style=&quot;&quot;&gt;&lt;b style=&quot;font-size: 18px;&quot;&gt;1..1&lt;/b&gt;&lt;/font&gt;" style="text;html=1;align=center;verticalAlign=middle;whiteSpace=wrap;rounded=0;" vertex="1" parent="vTrTwZQF_lzcv5GR676D-316">
          <mxGeometry x="275" y="1110.0040127388534" width="94.5" height="33.783439490445865" as="geometry" />
        </mxCell>
        <mxCell id="vTrTwZQF_lzcv5GR676D-649" value="&lt;font size=&quot;1&quot; style=&quot;&quot;&gt;&lt;b style=&quot;font-size: 18px;&quot;&gt;1..1&lt;/b&gt;&lt;/font&gt;" style="text;html=1;align=center;verticalAlign=middle;whiteSpace=wrap;rounded=0;" vertex="1" parent="vTrTwZQF_lzcv5GR676D-316">
          <mxGeometry x="275" y="1150.0040127388534" width="94.5" height="33.783439490445865" as="geometry" />
        </mxCell>
        <mxCell id="vTrTwZQF_lzcv5GR676D-650" value="&lt;font size=&quot;1&quot; style=&quot;&quot;&gt;&lt;b style=&quot;font-size: 18px;&quot;&gt;0..*&lt;/b&gt;&lt;/font&gt;" style="text;html=1;align=center;verticalAlign=middle;whiteSpace=wrap;rounded=0;" vertex="1" parent="vTrTwZQF_lzcv5GR676D-316">
          <mxGeometry x="375" y="417.83076433121016" width="94.5" height="33.783439490445865" as="geometry" />
        </mxCell>
        <mxCell id="vTrTwZQF_lzcv5GR676D-651" value="&lt;font size=&quot;1&quot; style=&quot;&quot;&gt;&lt;b style=&quot;font-size: 18px;&quot;&gt;0..*&lt;/b&gt;&lt;/font&gt;" style="text;html=1;align=center;verticalAlign=middle;whiteSpace=wrap;rounded=0;" vertex="1" parent="vTrTwZQF_lzcv5GR676D-316">
          <mxGeometry x="670.5" y="424.92076433121014" width="94.5" height="33.783439490445865" as="geometry" />
        </mxCell>
        <mxCell id="vTrTwZQF_lzcv5GR676D-652" value="&lt;font size=&quot;1&quot; style=&quot;&quot;&gt;&lt;b style=&quot;font-size: 18px;&quot;&gt;1..1&lt;/b&gt;&lt;/font&gt;" style="text;html=1;align=center;verticalAlign=middle;whiteSpace=wrap;rounded=0;" vertex="1" parent="vTrTwZQF_lzcv5GR676D-316">
          <mxGeometry x="80" y="119.99668789808914" width="94.5" height="33.783439490445865" as="geometry" />
        </mxCell>
        <mxCell id="vTrTwZQF_lzcv5GR676D-653" value="&lt;font size=&quot;1&quot; style=&quot;&quot;&gt;&lt;b style=&quot;font-size: 18px;&quot;&gt;1..1&lt;/b&gt;&lt;/font&gt;" style="text;html=1;align=center;verticalAlign=middle;whiteSpace=wrap;rounded=0;" vertex="1" parent="vTrTwZQF_lzcv5GR676D-316">
          <mxGeometry x="128.5" y="119.99668789808914" width="94.5" height="33.783439490445865" as="geometry" />
        </mxCell>
        <mxCell id="vTrTwZQF_lzcv5GR676D-654" value="&lt;font size=&quot;1&quot; style=&quot;&quot;&gt;&lt;b style=&quot;font-size: 18px;&quot;&gt;0..*&lt;/b&gt;&lt;/font&gt;" style="text;html=1;align=center;verticalAlign=middle;whiteSpace=wrap;rounded=0;" vertex="1" parent="vTrTwZQF_lzcv5GR676D-316">
          <mxGeometry x="315" y="98.11076433121013" width="94.5" height="33.783439490445865" as="geometry" />
        </mxCell>
        <mxCell id="vTrTwZQF_lzcv5GR676D-655" value="&lt;font size=&quot;1&quot; style=&quot;&quot;&gt;&lt;b style=&quot;font-size: 18px;&quot;&gt;0..*&lt;/b&gt;&lt;/font&gt;" style="text;html=1;align=center;verticalAlign=middle;whiteSpace=wrap;rounded=0;" vertex="1" parent="vTrTwZQF_lzcv5GR676D-316">
          <mxGeometry x="755" y="10.13076433121013" width="94.5" height="33.783439490445865" as="geometry" />
        </mxCell>
        <mxCell id="vTrTwZQF_lzcv5GR676D-656" value="&lt;font size=&quot;1&quot; style=&quot;&quot;&gt;&lt;b style=&quot;font-size: 18px;&quot;&gt;1..1&lt;/b&gt;&lt;/font&gt;" style="text;html=1;align=center;verticalAlign=middle;whiteSpace=wrap;rounded=0;" vertex="1" parent="vTrTwZQF_lzcv5GR676D-316">
          <mxGeometry x="495" y="417.8266878980891" width="94.5" height="33.783439490445865" as="geometry" />
        </mxCell>
        <mxCell id="vTrTwZQF_lzcv5GR676D-657" value="&lt;font size=&quot;1&quot; style=&quot;&quot;&gt;&lt;b style=&quot;font-size: 18px;&quot;&gt;1..1&lt;/b&gt;&lt;/font&gt;" style="text;html=1;align=center;verticalAlign=middle;whiteSpace=wrap;rounded=0;" vertex="1" parent="vTrTwZQF_lzcv5GR676D-316">
          <mxGeometry x="875.5" y="255.00668789808913" width="94.5" height="33.783439490445865" as="geometry" />
        </mxCell>
        <mxCell id="vTrTwZQF_lzcv5GR676D-659" value="&lt;font size=&quot;1&quot; style=&quot;&quot;&gt;&lt;b style=&quot;font-size: 18px;&quot;&gt;0..1&lt;/b&gt;&lt;/font&gt;" style="text;html=1;align=center;verticalAlign=middle;whiteSpace=wrap;rounded=0;" vertex="1" parent="vTrTwZQF_lzcv5GR676D-316">
          <mxGeometry x="894" y="469.99592356687907" width="94.5" height="33.783439490445865" as="geometry" />
        </mxCell>
        <mxCell id="vTrTwZQF_lzcv5GR676D-660" value="&lt;font size=&quot;1&quot; style=&quot;&quot;&gt;&lt;b style=&quot;font-size: 18px;&quot;&gt;0..1&lt;/b&gt;&lt;/font&gt;" style="text;html=1;align=center;verticalAlign=middle;whiteSpace=wrap;rounded=0;" vertex="1" parent="vTrTwZQF_lzcv5GR676D-316">
          <mxGeometry x="906" y="422.82592356687906" width="94.5" height="33.783439490445865" as="geometry" />
        </mxCell>
        <mxCell id="vTrTwZQF_lzcv5GR676D-661" value="&lt;font size=&quot;1&quot; style=&quot;&quot;&gt;&lt;b style=&quot;font-size: 18px;&quot;&gt;1..1&lt;/b&gt;&lt;/font&gt;" style="text;html=1;align=center;verticalAlign=middle;whiteSpace=wrap;rounded=0;" vertex="1" parent="vTrTwZQF_lzcv5GR676D-316">
          <mxGeometry x="945" y="307.0029299363057" width="94.5" height="33.783439490445865" as="geometry" />
        </mxCell>
        <mxCell id="vTrTwZQF_lzcv5GR676D-662" value="&lt;font size=&quot;1&quot; style=&quot;&quot;&gt;&lt;b style=&quot;font-size: 18px;&quot;&gt;1..1&lt;/b&gt;&lt;/font&gt;" style="text;html=1;align=center;verticalAlign=middle;whiteSpace=wrap;rounded=0;" vertex="1" parent="vTrTwZQF_lzcv5GR676D-316">
          <mxGeometry x="1084.5" y="92.00292993630569" width="94.5" height="33.783439490445865" as="geometry" />
        </mxCell>
        <mxCell id="vTrTwZQF_lzcv5GR676D-663" value="&lt;font size=&quot;1&quot; style=&quot;&quot;&gt;&lt;b style=&quot;font-size: 18px;&quot;&gt;0..*&lt;/b&gt;&lt;/font&gt;" style="text;html=1;align=center;verticalAlign=middle;whiteSpace=wrap;rounded=0;" vertex="1" parent="vTrTwZQF_lzcv5GR676D-316">
          <mxGeometry x="549" y="418.83076433121016" width="94.5" height="33.783439490445865" as="geometry" />
        </mxCell>
        <mxCell id="vTrTwZQF_lzcv5GR676D-664" value="&lt;font size=&quot;1&quot; style=&quot;&quot;&gt;&lt;b style=&quot;font-size: 18px;&quot;&gt;0..*&lt;/b&gt;&lt;/font&gt;" style="text;html=1;align=center;verticalAlign=middle;whiteSpace=wrap;rounded=0;" vertex="1" parent="vTrTwZQF_lzcv5GR676D-316">
          <mxGeometry x="882" y="58.22076433121015" width="94.5" height="33.783439490445865" as="geometry" />
        </mxCell>
        <mxCell id="vTrTwZQF_lzcv5GR676D-557" value="" style="endArrow=none;html=1;rounded=0;entryX=0;entryY=0.592;entryDx=0;entryDy=0;exitX=0.5;exitY=0;exitDx=0;exitDy=0;entryPerimeter=0;" edge="1" parent="vTrTwZQF_lzcv5GR676D-666" source="vTrTwZQF_lzcv5GR676D-193" target="vTrTwZQF_lzcv5GR676D-503">
          <mxGeometry width="50" height="50" relative="1" as="geometry">
            <mxPoint x="314.5" y="150" as="sourcePoint" />
            <mxPoint x="364.5" y="100" as="targetPoint" />
            <Array as="points">
              <mxPoint x="195" y="100" />
            </Array>
          </mxGeometry>
        </mxCell>
        <mxCell id="vTrTwZQF_lzcv5GR676D-558" value="" style="endArrow=none;html=1;rounded=0;entryX=0.5;entryY=0;entryDx=0;entryDy=0;exitX=0.25;exitY=0;exitDx=0;exitDy=0;" edge="1" parent="vTrTwZQF_lzcv5GR676D-666" source="vTrTwZQF_lzcv5GR676D-193" target="vTrTwZQF_lzcv5GR676D-512">
          <mxGeometry width="50" height="50" relative="1" as="geometry">
            <mxPoint x="165" y="110" as="sourcePoint" />
            <mxPoint x="195" y="70" as="targetPoint" />
            <Array as="points">
              <mxPoint x="148" y="20" />
              <mxPoint x="780" y="20" />
            </Array>
          </mxGeometry>
        </mxCell>
        <mxCell id="vTrTwZQF_lzcv5GR676D-560" value="" style="endArrow=none;html=1;rounded=0;entryX=0.908;entryY=0.99;entryDx=0;entryDy=0;entryPerimeter=0;exitX=0;exitY=0.5;exitDx=0;exitDy=0;" edge="1" parent="vTrTwZQF_lzcv5GR676D-666" source="vTrTwZQF_lzcv5GR676D-275" target="vTrTwZQF_lzcv5GR676D-511">
          <mxGeometry width="50" height="50" relative="1" as="geometry">
            <mxPoint x="545" y="490" as="sourcePoint" />
            <mxPoint x="595" y="440" as="targetPoint" />
            <Array as="points">
              <mxPoint x="915" y="340" />
              <mxPoint x="915" y="460" />
              <mxPoint x="612" y="460" />
            </Array>
          </mxGeometry>
        </mxCell>
        <mxCell id="vTrTwZQF_lzcv5GR676D-561" value="" style="endArrow=none;html=1;rounded=0;jumpStyle=arc;exitX=1.001;exitY=0.333;exitDx=0;exitDy=0;exitPerimeter=0;entryX=-0.002;entryY=0.078;entryDx=0;entryDy=0;entryPerimeter=0;" edge="1" parent="vTrTwZQF_lzcv5GR676D-666" source="vTrTwZQF_lzcv5GR676D-525" target="vTrTwZQF_lzcv5GR676D-248">
          <mxGeometry width="50" height="50" relative="1" as="geometry">
            <mxPoint x="915" y="290" as="sourcePoint" />
            <mxPoint x="965" y="450" as="targetPoint" />
            <Array as="points">
              <mxPoint x="935" y="289" />
              <mxPoint x="935" y="450" />
            </Array>
          </mxGeometry>
        </mxCell>
        <mxCell id="vTrTwZQF_lzcv5GR676D-562" value="" style="endArrow=none;html=1;rounded=0;exitX=-0.001;exitY=0.125;exitDx=0;exitDy=0;exitPerimeter=0;entryX=0.721;entryY=1.006;entryDx=0;entryDy=0;entryPerimeter=0;" edge="1" parent="vTrTwZQF_lzcv5GR676D-666" source="vTrTwZQF_lzcv5GR676D-250" target="vTrTwZQF_lzcv5GR676D-511">
          <mxGeometry width="50" height="50" relative="1" as="geometry">
            <mxPoint x="965" y="500" as="sourcePoint" />
            <mxPoint x="565" y="420" as="targetPoint" />
            <Array as="points">
              <mxPoint x="565" y="500" />
            </Array>
          </mxGeometry>
        </mxCell>
        <mxCell id="vTrTwZQF_lzcv5GR676D-563" value="" style="endArrow=none;html=1;rounded=0;entryX=0.063;entryY=1.011;entryDx=0;entryDy=0;entryPerimeter=0;exitX=0.999;exitY=0.365;exitDx=0;exitDy=0;exitPerimeter=0;" edge="1" parent="vTrTwZQF_lzcv5GR676D-666" source="vTrTwZQF_lzcv5GR676D-211" target="vTrTwZQF_lzcv5GR676D-511">
          <mxGeometry width="50" height="50" relative="1" as="geometry">
            <mxPoint x="405" y="500" as="sourcePoint" />
            <mxPoint x="455" y="450" as="targetPoint" />
            <Array as="points">
              <mxPoint x="401" y="1180" />
            </Array>
          </mxGeometry>
        </mxCell>
        <mxCell id="vTrTwZQF_lzcv5GR676D-564" value="" style="endArrow=none;html=1;rounded=0;entryX=0.322;entryY=1.019;entryDx=0;entryDy=0;entryPerimeter=0;exitX=1.002;exitY=0.187;exitDx=0;exitDy=0;exitPerimeter=0;jumpStyle=arc;" edge="1" parent="vTrTwZQF_lzcv5GR676D-666" source="vTrTwZQF_lzcv5GR676D-210" target="vTrTwZQF_lzcv5GR676D-524">
          <mxGeometry width="50" height="50" relative="1" as="geometry">
            <mxPoint x="295" y="1140" as="sourcePoint" />
            <mxPoint x="356" y="378" as="targetPoint" />
            <Array as="points">
              <mxPoint x="356" y="1140" />
              <mxPoint x="356" y="540" />
              <mxPoint x="736" y="540" />
            </Array>
          </mxGeometry>
        </mxCell>
        <mxCell id="vTrTwZQF_lzcv5GR676D-576" value="&lt;font size=&quot;1&quot; style=&quot;&quot;&gt;&lt;b style=&quot;font-size: 18px;&quot;&gt;0..1&lt;/b&gt;&lt;/font&gt;" style="text;html=1;align=center;verticalAlign=middle;whiteSpace=wrap;rounded=0;" vertex="1" parent="vTrTwZQF_lzcv5GR676D-666">
          <mxGeometry x="131.5" y="1069.8089171974525" width="94.5" height="33.783439490445865" as="geometry" />
        </mxCell>
        <mxCell id="vTrTwZQF_lzcv5GR676D-646" value="&lt;font style=&quot;font-size: 16px;&quot;&gt;&lt;b&gt;takes place at&lt;/b&gt;&lt;/font&gt;" style="text;html=1;align=center;verticalAlign=middle;whiteSpace=wrap;rounded=0;" vertex="1" parent="vTrTwZQF_lzcv5GR676D-666">
          <mxGeometry x="216" y="20" width="125" height="30" as="geometry" />
        </mxCell>
      </root>
    </mxGraphModel>
  </diagram>
</mxfile>
